<?xml version="1.0" encoding="utf-8"?>
<!-- Generator: Adobe Illustrator 16.0.4, SVG Export Plug-In . SVG Version: 6.00 Build 0)  -->
<!DOCTYPE svg PUBLIC "-//W3C//DTD SVG 1.1//EN" "http://www.w3.org/Graphics/SVG/1.1/DTD/svg11.dtd">
<svg version="1.1" id="Capa_1" xmlns="http://www.w3.org/2000/svg" xmlns:xlink="http://www.w3.org/1999/xlink" x="0px" y="0px"
	 width="18.412px" height="19.502px" viewBox="0 0 18.412 19.502" enable-background="new 0 0 18.412 19.502" xml:space="preserve">
<path d="M18.297,17.558c0,0-4.997,0.516-5.993-3.035c-0.994-3.549-1.783-9.881-1.783-9.881s-0.145-0.859-0.291-1.574
	C10.082,2.35,9.411,0.145,9.411,0.145L9.234,0.039V0L9.207,0.02L9.178,0v0.039L9.003,0.145c0,0-0.674,2.205-0.818,2.922
	C8.036,3.781,7.892,4.641,7.892,4.641s-0.791,6.333-1.785,9.881c-0.993,3.551-5.99,3.035-5.99,3.035L0,19.502h18.412L18.297,17.558z
	 M9.021,3.998c0-0.34,0.24-0.49,0.24-0.49l0.005,0.004V3.508c0,0,0.241,0.15,0.241,0.49c0,0.172,0,0.793,0,0.793H9.021
	C9.021,4.791,9.021,4.17,9.021,3.998z M9.136,10.59v-0.578h0.258v0.578H9.136z M9.394,11.601v0.58H9.136v-0.58H9.394z M9.136,9
	V8.422h0.258V9H9.136z M9.136,7.412v-0.58h0.258v0.58H9.136z M8.405,4.223c0-0.246,0.172-0.354,0.172-0.354l0.002,0.004l0.004-0.004
	c0,0,0.171,0.107,0.171,0.354c0,0.123,0,0.568,0,0.568H8.405C8.405,4.791,8.405,4.346,8.405,4.223z M9.878,19.246H8.649v-1.488
	h1.229V19.246z M9.885,17.334H8.643c0,0,0-2.567,0-2.965c0-0.771,0.614-1.115,0.614-1.115l0.009,0.011l0.005-0.011
	c0,0,0.614,0.345,0.614,1.115C9.885,14.767,9.885,17.334,9.885,17.334z M10.122,4.791h-0.35c0,0,0-0.445,0-0.568
	c0-0.246,0.174-0.354,0.174-0.354l0.002,0.004L9.95,3.869c0,0,0.172,0.107,0.172,0.354C10.122,4.346,10.122,4.791,10.122,4.791z"/>
</svg>
