<?xml version="1.0" encoding="UTF-8" standalone="no"?>
<!DOCTYPE svg PUBLIC "-//W3C//DTD SVG 20010904//EN"
              "http://www.w3.org/TR/2001/REC-SVG-20010904/DTD/svg10.dtd">

<svg xmlns="http://www.w3.org/2000/svg"
     width="5.53333in" height="6.01111in"
     viewBox="0 0 498 541">
  <path id="0"
        fill="none" stroke="none" stroke-width="1"
        d="M 32.00,487.00
           C 32.00,487.00 49.00,486.00 49.00,486.00
             49.00,486.00 315.00,486.00 315.00,486.00
             315.00,486.00 462.00,486.00 462.00,486.00
             462.00,486.00 477.00,487.00 477.00,487.00
             477.00,487.00 498.00,487.00 498.00,487.00
             498.00,487.00 498.00,541.00 498.00,541.00
             498.00,541.00 0.00,541.00 0.00,541.00
             0.00,541.00 0.00,516.00 0.00,516.00
             0.00,516.00 1.00,500.00 1.00,500.00
             1.00,500.00 2.00,487.00 2.00,487.00
             2.00,487.00 32.00,487.00 32.00,487.00 Z
           M 240.00,493.00
           C 240.00,493.00 240.00,534.00 240.00,534.00
             240.00,534.00 273.00,534.00 273.00,534.00
             273.00,534.00 273.00,493.00 273.00,493.00
             273.00,493.00 240.00,493.00 240.00,493.00 Z" />
  <path id="1"
        fill="none" stroke="none" stroke-width="1"
        d="M 126.00,459.80
           C 130.92,456.39 139.87,449.26 143.83,444.99
             154.21,433.78 151.27,436.55 155.45,432.00
             155.45,432.00 240.00,432.00 240.00,432.00
             240.00,432.00 240.00,480.00 240.00,480.00
             240.00,480.00 273.00,480.00 273.00,480.00
             273.00,480.00 273.00,432.00 273.00,432.00
             273.00,432.00 353.91,432.00 353.91,432.00
             360.55,439.00 355.09,433.82 365.01,444.00
             371.75,450.90 376.89,455.60 385.00,460.92
             399.29,470.31 415.48,476.50 432.00,480.63
             432.00,480.63 458.09,488.00 458.09,488.00
             458.09,488.00 171.00,488.00 171.00,488.00
             171.00,488.00 88.00,488.00 88.00,488.00
             88.00,488.00 64.00,488.00 64.00,488.00
             64.00,488.00 49.91,488.00 49.91,488.00
             72.08,485.51 107.82,472.39 126.00,459.80 Z" />
  <path id="2"
        fill="none" stroke="none" stroke-width="1"
        d="M 246.00,378.00
           C 246.00,378.00 240.18,392.91 240.18,392.91
             240.18,392.91 240.00,433.00 240.00,433.00
             240.00,433.00 155.00,433.00 155.00,433.00
             155.00,433.00 162.69,417.00 162.69,417.00
             166.24,409.14 172.80,386.49 174.00,378.00
             174.00,378.00 246.00,378.00 246.00,378.00 Z
           M 327.00,378.00
           C 329.92,378.01 330.38,378.00 335.50,378.00
             335.50,378.00 342.34,405.00 342.34,405.00
             342.34,405.00 354.00,433.00 354.00,433.00
             354.00,433.00 272.77,433.00 272.77,433.00
             272.77,433.00 272.82,392.73 272.82,392.73
             272.82,392.73 267.00,378.00 267.00,378.00
             267.00,378.00 327.00,378.00 327.00,378.00 Z" />
  <path id="3"
        fill="none" stroke="none" stroke-width="1"
        d="M 253.00,324.00
           C 253.00,324.00 253.04,338.07 253.04,338.07
             253.04,338.07 260.02,338.07 260.02,338.07
             260.02,338.07 260.00,324.00 260.00,324.00
             260.00,324.00 315.00,324.00 315.00,324.00
             315.00,324.00 323.12,324.00 323.12,324.00
             323.12,324.00 326.60,341.00 326.60,341.00
             326.60,341.00 335.00,379.00 335.00,379.00
             335.00,379.00 274.00,379.00 274.00,379.00
             270.87,377.99 269.94,379.00 267.00,379.00
             264.38,375.75 260.12,368.03 256.41,368.00
             253.03,367.97 248.73,376.26 246.06,379.00
             241.78,379.00 241.26,377.99 238.00,379.00
             238.00,379.00 175.00,379.00 175.00,379.00
             175.00,379.00 186.00,324.00 186.00,324.00
             186.00,324.00 253.00,324.00 253.00,324.00 Z" />
  <path id="4"
        fill="none" stroke="none" stroke-width="1"
        d="M 313.00,270.00
           C 313.00,270.00 323.00,325.00 323.00,325.00
             323.00,325.00 260.00,325.00 260.00,325.00
             260.00,325.00 260.03,322.53 260.05,321.02
             256.61,320.98 256.07,321.00 252.98,321.00
             252.98,323.44 253.00,325.00 253.00,325.00
             253.00,325.00 187.00,325.00 187.00,325.00
             187.00,325.00 196.00,270.00 196.00,270.00
             196.00,270.00 313.00,270.00 313.00,270.00 Z
           M 253.00,278.00
           C 253.00,278.00 253.00,293.00 253.00,293.00
             253.00,293.00 260.00,293.00 260.00,293.00
             260.00,293.00 260.00,278.00 260.00,278.00
             260.00,278.00 253.00,278.00 253.00,278.00 Z" />
  <path id="5"
        fill="none" stroke="none" stroke-width="1"
        d="M 296.00,215.00
           C 296.00,215.00 303.94,215.00 303.94,215.00
             303.94,215.00 306.75,232.00 306.75,232.00
             306.75,232.00 312.94,271.00 312.94,271.00
             312.94,271.00 196.06,271.00 196.06,271.00
             196.06,271.00 205.00,215.00 205.00,215.00
             205.00,215.00 296.00,215.00 296.00,215.00 Z
           M 253.00,233.00
           C 253.00,233.00 253.00,249.00 253.00,249.00
             253.00,249.00 260.00,249.00 260.00,249.00
             260.00,249.00 260.00,233.00 260.00,233.00
             260.00,233.00 253.00,233.00 253.00,233.00 Z" />
  <path id="6"
        fill="none" stroke="none" stroke-width="1"
        d="M 288.00,162.00
           C 288.00,162.00 295.94,162.00 295.94,162.00
             295.94,162.00 298.58,178.00 298.58,178.00
             298.58,178.00 304.00,217.00 304.00,217.00
             304.00,217.00 205.00,217.00 205.00,217.00
             205.00,217.00 213.00,162.00 213.00,162.00
             213.00,162.00 288.00,162.00 288.00,162.00 Z
           M 252.75,188.94
           C 252.75,188.94 252.81,205.12 252.81,205.12
             252.81,205.12 260.00,205.00 260.00,205.00
             260.00,205.00 260.00,189.00 260.00,189.00
             260.00,189.00 252.75,188.94 252.75,188.94 Z" />
  <path id="7"
        fill="none" stroke="none" stroke-width="1"
        d="M 236.00,108.00
           C 231.66,116.61 233.00,122.59 233.00,132.00
             233.00,132.00 242.00,132.00 242.00,132.00
             242.00,121.24 243.09,118.31 239.00,108.00
             239.00,108.00 250.00,108.00 250.00,108.00
             250.00,108.00 250.00,132.00 250.00,132.00
             250.00,132.00 263.00,132.00 263.00,132.00
             263.00,132.00 263.00,108.00 263.00,108.00
             263.00,108.00 274.00,108.00 274.00,108.00
             269.66,116.61 271.00,122.59 271.00,132.00
             271.00,132.00 280.00,132.00 280.00,132.00
             280.00,121.24 281.09,118.31 277.00,108.00
             277.00,108.00 283.06,108.00 283.06,108.00
             290.49,108.13 286.75,105.69 290.25,120.81
             290.25,120.81 296.00,163.00 296.00,163.00
             296.00,163.00 213.00,163.00 213.00,163.00
             213.00,163.00 217.28,131.00 217.28,131.00
             217.28,131.00 221.00,108.00 221.00,108.00
             221.00,108.00 236.00,108.00 236.00,108.00 Z
           M 237.50,105.81" />
  <path id="8"
        fill="none" stroke="none" stroke-width="1"
        d="M 229.42,69.00
           C 229.42,69.00 234.25,54.00 234.25,54.00
             234.25,54.00 242.00,54.00 242.00,54.00
             242.00,54.00 276.00,54.00 276.00,54.00
             276.00,54.00 281.11,73.00 281.11,73.00
             281.11,73.00 288.00,109.00 288.00,109.00
             283.92,109.00 280.00,109.00 277.00,109.00
             274.88,104.75 276.98,106.72 275.62,106.00
             274.88,109.55 274.71,109.69 273.94,109.00
             270.38,109.00 266.69,109.00 262.91,109.00
             261.83,102.09 263.00,98.50 256.38,95.75
             249.25,99.12 251.35,102.13 249.88,109.00
             249.88,109.00 244.69,109.00 239.12,109.00
             235.81,103.44 238.57,106.32 237.25,105.62
             237.40,106.48 238.25,103.50 236.06,109.00
             235.79,109.08 227.45,109.00 226.62,109.00
             222.50,109.00 222.72,109.00 221.00,109.00
             221.00,109.00 229.42,69.00 229.42,69.00 Z" />
    <path id="9"
        fill="none" stroke="none" stroke-width="1"
        d="M 246.02,11.00
           C 247.57,5.97 249.77,-1.88 256.96,0.76
             262.08,2.63 263.24,10.30 264.58,15.00
             264.58,15.00 276.00,55.00 276.00,55.00
             276.00,55.00 234.00,55.00 234.00,55.00
             234.00,55.00 246.02,11.00 246.02,11.00 Z" />
    <path id="10"
        fill="none" stroke="none" stroke-width="1"
        d="M 19.00,486.00
           C 19.00,486.00 23.00,486.00 23.00,486.00
             23.00,486.00 33.00,484.96 33.00,484.96
             33.00,484.96 43.00,484.96 43.00,484.96
             78.18,481.48 115.98,471.21 141.96,445.91
             166.21,422.30 170.13,394.03 177.87,363.00
             177.87,363.00 187.20,319.00 187.20,319.00
             196.75,271.26 204.33,223.18 211.27,175.00
             215.76,143.84 219.63,112.79 226.42,82.00
             226.42,82.00 237.37,41.00 237.37,41.00
             237.37,41.00 246.72,9.00 246.72,9.00
             247.93,5.23 250.24,0.43 255.00,0.77
             260.04,1.13 261.71,5.97 262.98,10.00
             262.98,10.00 271.42,39.00 271.42,39.00
             271.42,39.00 283.35,83.00 283.35,83.00
             289.67,110.56 293.17,139.01 297.00,167.00
             305.43,228.65 315.67,290.17 328.79,351.00
             334.89,379.29 341.67,417.15 361.17,439.00
             395.77,477.75 448.67,486.00 498.00,486.00
             498.00,486.00 498.00,540.00 498.00,540.00
             498.00,540.00 0.00,540.00 0.00,540.00
             0.00,540.00 1.09,509.00 1.09,509.00
             1.09,509.00 2.00,498.00 2.00,498.00
             2.00,498.00 3.00,485.00 3.00,485.00
             3.00,485.00 19.00,486.00 19.00,486.00 Z
           M 255.00,98.00
           C 255.00,98.00 250.80,106.00 250.80,106.00
             250.80,106.00 250.00,132.00 250.00,132.00
             250.00,132.00 263.00,132.00 263.00,132.00
             263.00,121.72 265.81,103.41 255.00,98.00 Z
           M 233.00,132.00
           C 233.00,132.00 242.00,132.00 242.00,132.00
             242.00,122.69 243.48,116.05 238.00,108.00
             230.95,113.87 233.00,123.58 233.00,132.00 Z
           M 274.00,108.00
           C 269.67,115.96 271.00,123.17 271.00,132.00
             271.00,132.00 280.00,132.00 280.00,132.00
             280.00,124.30 281.95,112.25 274.00,108.00 Z
           M 253.00,189.00
           C 253.00,189.00 253.00,204.00 253.00,204.00
             253.00,204.00 259.00,204.00 259.00,204.00
             259.00,204.00 259.00,189.00 259.00,189.00
             259.00,189.00 253.00,189.00 253.00,189.00 Z
           M 253.00,233.00
           C 253.00,233.00 253.00,248.00 253.00,248.00
             253.00,248.00 259.00,248.00 259.00,248.00
             259.00,248.00 259.00,233.00 259.00,233.00
             259.00,233.00 253.00,233.00 253.00,233.00 Z
           M 253.00,277.00
           C 253.00,277.00 253.00,292.00 253.00,292.00
             253.00,292.00 259.00,292.00 259.00,292.00
             259.00,292.00 259.00,277.00 259.00,277.00
             259.00,277.00 253.00,277.00 253.00,277.00 Z
           M 253.00,321.00
           C 253.00,321.00 253.00,336.00 253.00,336.00
             253.00,336.00 259.00,336.00 259.00,336.00
             259.00,336.00 259.00,321.00 259.00,321.00
             259.00,321.00 253.00,321.00 253.00,321.00 Z
           M 273.00,400.00
           C 272.98,389.76 271.26,382.09 264.53,374.01
             262.66,371.77 259.22,367.98 256.00,368.25
             253.25,368.47 249.93,372.03 248.18,374.00
             241.67,381.34 240.01,388.47 240.00,398.00
             240.00,398.00 240.00,479.00 240.00,479.00
             240.00,479.00 273.00,479.00 273.00,479.00
             273.00,479.00 273.00,400.00 273.00,400.00 Z
           M 240.00,491.00
           C 240.00,491.00 240.00,532.00 240.00,532.00
             240.00,532.00 273.00,532.00 273.00,532.00
             273.00,532.00 273.00,491.00 273.00,491.00
             273.00,491.00 240.00,491.00 240.00,491.00 Z" />
</svg>