<?xml version="1.0" encoding="UTF-8" standalone="no"?>
<!DOCTYPE svg PUBLIC "-//W3C//DTD SVG 20010904//EN"
              "http://www.w3.org/TR/2001/REC-SVG-20010904/DTD/svg10.dtd">

<svg xmlns="http://www.w3.org/2000/svg"
     width="5.53333in" height="6.01111in"
     viewBox="0 0 498 541">
  <path id="0"
        fill="none" stroke="black" stroke-width="1"
        d="M 32.00,487.00
           C 32.00,487.00 49.00,486.00 49.00,486.00
             49.00,486.00 315.00,486.00 315.00,486.00
             315.00,486.00 462.00,486.00 462.00,486.00
             462.00,486.00 477.00,487.00 477.00,487.00
             477.00,487.00 498.00,487.00 498.00,487.00
             498.00,487.00 498.00,541.00 498.00,541.00
             498.00,541.00 0.00,541.00 0.00,541.00
             0.00,541.00 0.00,516.00 0.00,516.00
             0.00,516.00 1.00,500.00 1.00,500.00
             1.00,500.00 2.00,487.00 2.00,487.00
             2.00,487.00 32.00,487.00 32.00,487.00 Z
           M 240.00,493.00
           C 240.00,493.00 240.00,534.00 240.00,534.00
             240.00,534.00 273.00,534.00 273.00,534.00
             273.00,534.00 273.00,493.00 273.00,493.00
             273.00,493.00 240.00,493.00 240.00,493.00 Z" />
</svg>
