<?xml version="1.0" encoding="UTF-8" standalone="no"?>
<!DOCTYPE svg PUBLIC "-//W3C//DTD SVG 20010904//EN"
              "http://www.w3.org/TR/2001/REC-SVG-20010904/DTD/svg10.dtd">

<svg xmlns="http://www.w3.org/2000/svg"
     width="5.53333in" height="6.01111in"
     viewBox="0 0 498 541">
  <path id="1"
        fill="none" stroke="black" stroke-width="1"
        d="M 126.00,459.80
           C 130.92,456.39 139.87,449.26 143.83,444.99
             154.21,433.78 151.27,436.55 155.45,432.00
             155.45,432.00 240.00,432.00 240.00,432.00
             240.00,432.00 240.00,480.00 240.00,480.00
             240.00,480.00 273.00,480.00 273.00,480.00
             273.00,480.00 273.00,432.00 273.00,432.00
             273.00,432.00 353.91,432.00 353.91,432.00
             360.55,439.00 355.09,433.82 365.01,444.00
             371.75,450.90 376.89,455.60 385.00,460.92
             399.29,470.31 415.48,476.50 432.00,480.63
             432.00,480.63 458.09,486.00 458.09,486.00
             458.09,486.00 171.00,486.00 171.00,486.00
             171.00,486.00 88.00,486.00 88.00,486.00
             88.00,486.00 64.00,486.00 64.00,486.00
             64.00,486.00 49.91,486.00 49.91,486.00
             72.08,485.51 107.82,472.39 126.00,459.80 Z" />
</svg>
