<?xml version="1.0" encoding="UTF-8" standalone="no"?>
<!DOCTYPE svg PUBLIC "-//W3C//DTD SVG 20010904//EN"
              "http://www.w3.org/TR/2001/REC-SVG-20010904/DTD/svg10.dtd">

<svg xmlns="http://www.w3.org/2000/svg"
     width="5.53333in" height="6.01111in"
     viewBox="0 0 498 541">
  <path id="2"
        fill="none" stroke="black" stroke-width="1"
        d="M 246.00,378.00
           C 246.00,378.00 240.18,392.91 240.18,392.91
             240.18,392.91 240.00,432.00 240.00,432.00
             240.00,432.00 155.00,432.00 155.00,432.00
             155.00,432.00 162.69,417.00 162.69,417.00
             166.24,409.14 172.80,386.49 174.00,378.00
             174.00,378.00 246.00,378.00 246.00,378.00 Z
           M 327.00,378.00
           C 329.92,378.01 330.38,378.00 335.50,378.00
             335.50,378.00 342.34,405.00 342.34,405.00
             342.34,405.00 354.00,432.00 354.00,432.00
             354.00,432.00 272.77,432.00 272.77,432.00
             272.77,432.00 272.82,392.73 272.82,392.73
             272.82,392.73 267.00,378.00 267.00,378.00
             267.00,378.00 327.00,378.00 327.00,378.00 Z" />
</svg>
