<?xml version="1.0" encoding="UTF-8" standalone="no"?>
<!DOCTYPE svg PUBLIC "-//W3C//DTD SVG 20010904//EN"
              "http://www.w3.org/TR/2001/REC-SVG-20010904/DTD/svg10.dtd">

<svg xmlns="http://www.w3.org/2000/svg"
     width="5.53333in" height="6.01111in"
     viewBox="0 0 498 541">
  <path id="3"
        fill="none" stroke="black" stroke-width="1"
        d="M 253.00,324.00
           C 253.00,324.00 253.04,338.07 253.04,338.07
             253.04,338.07 260.02,338.07 260.02,338.07
             260.02,338.07 260.00,324.00 260.00,324.00
             260.00,324.00 315.00,324.00 315.00,324.00
             315.00,324.00 323.12,324.00 323.12,324.00
             323.12,324.00 326.60,341.00 326.60,341.00
             326.60,341.00 335.00,378.00 335.00,378.00
             335.00,378.00 274.00,378.00 274.00,378.00
             270.87,377.99 269.94,378.00 267.00,378.00
             264.38,375.75 260.12,368.03 256.41,368.00
             253.03,367.97 248.73,376.26 246.06,378.00
             241.78,378.00 241.26,377.99 238.00,378.00
             238.00,378.00 175.00,378.00 175.00,378.00
             175.00,378.00 186.00,324.00 186.00,324.00
             186.00,324.00 253.00,324.00 253.00,324.00 Z" />
</svg>
