<?xml version="1.0" encoding="UTF-8" standalone="no"?>
<!DOCTYPE svg PUBLIC "-//W3C//DTD SVG 20010904//EN"
              "http://www.w3.org/TR/2001/REC-SVG-20010904/DTD/svg10.dtd">

<svg xmlns="http://www.w3.org/2000/svg"
     width="5.53333in" height="6.01111in"
     viewBox="0 0 498 541">
  <path id="4"
        fill="none" stroke="black" stroke-width="1"
        d="M 313.00,270.00
           C 313.00,270.00 323.00,324.00 323.00,324.00
             323.00,324.00 260.00,324.00 260.00,324.00
             260.00,324.00 260.03,322.53 260.05,321.02
             256.61,320.98 256.07,321.00 252.98,321.00
             252.98,323.44 253.00,324.00 253.00,324.00
             253.00,324.00 187.00,324.00 187.00,324.00
             187.00,324.00 196.00,270.00 196.00,270.00
             196.00,270.00 313.00,270.00 313.00,270.00 Z
           M 253.00,278.00
           C 253.00,278.00 253.00,293.00 253.00,293.00
             253.00,293.00 260.00,293.00 260.00,293.00
             260.00,293.00 260.00,278.00 260.00,278.00
             260.00,278.00 253.00,278.00 253.00,278.00 Z" />
</svg>
