<?xml version="1.0" encoding="UTF-8" standalone="no"?>
<!DOCTYPE svg PUBLIC "-//W3C//DTD SVG 20010904//EN"
              "http://www.w3.org/TR/2001/REC-SVG-20010904/DTD/svg10.dtd">

<svg xmlns="http://www.w3.org/2000/svg"
     width="5.53333in" height="6.01111in"
     viewBox="0 0 498 541">
  <path id="5"
        fill="none" stroke="black" stroke-width="1"
        d="M 296.00,216.00
           C 296.00,216.00 303.94,216.00 303.94,216.00
             303.94,216.00 306.75,232.00 306.75,232.00
             306.75,232.00 312.94,270.00 312.94,270.00
             312.94,270.00 196.06,270.00 196.06,270.00
             196.06,270.00 205.00,216.00 205.00,216.00
             205.00,216.00 296.00,216.00 296.00,216.00 Z
           M 253.00,233.00
           C 253.00,233.00 253.00,249.00 253.00,249.00
             253.00,249.00 260.00,249.00 260.00,249.00
             260.00,249.00 260.00,233.00 260.00,233.00
             260.00,233.00 253.00,233.00 253.00,233.00 Z" />
</svg>
