<?xml version="1.0" encoding="UTF-8" standalone="no"?>
<!DOCTYPE svg PUBLIC "-//W3C//DTD SVG 20010904//EN"
              "http://www.w3.org/TR/2001/REC-SVG-20010904/DTD/svg10.dtd">

<svg xmlns="http://www.w3.org/2000/svg"
     width="5.53333in" height="6.01111in"
     viewBox="0 0 498 541">
  <path id="6"
        fill="none" stroke="black" stroke-width="1"
        d="M 288.00,162.00
           C 288.00,162.00 295.94,162.00 295.94,162.00
             295.94,162.00 298.58,178.00 298.58,178.00
             298.58,178.00 304.00,216.00 304.00,216.00
             304.00,216.00 205.00,216.00 205.00,216.00
             205.00,216.00 213.00,162.00 213.00,162.00
             213.00,162.00 288.00,162.00 288.00,162.00 Z
           M 252.75,188.94
           C 252.75,188.94 252.81,205.12 252.81,205.12
             252.81,205.12 260.00,205.00 260.00,205.00
             260.00,205.00 260.00,189.00 260.00,189.00
             260.00,189.00 252.75,188.94 252.75,188.94 Z" />
</svg>
