<?xml version="1.0" encoding="UTF-8" standalone="no"?>
<!DOCTYPE svg PUBLIC "-//W3C//DTD SVG 20010904//EN"
              "http://www.w3.org/TR/2001/REC-SVG-20010904/DTD/svg10.dtd">

<svg xmlns="http://www.w3.org/2000/svg"
     width="5.53333in" height="6.01111in"
     viewBox="0 0 498 541">
  <path id="7"
        fill="none" stroke="black" stroke-width="1"
        d="M 236.00,108.00
           C 231.66,116.61 233.00,122.59 233.00,132.00
             233.00,132.00 242.00,132.00 242.00,132.00
             242.00,121.24 243.09,118.31 239.00,108.00
             239.00,108.00 250.00,108.00 250.00,108.00
             250.00,108.00 250.00,132.00 250.00,132.00
             250.00,132.00 263.00,132.00 263.00,132.00
             263.00,132.00 263.00,108.00 263.00,108.00
             263.00,108.00 274.00,108.00 274.00,108.00
             269.66,116.61 271.00,122.59 271.00,132.00
             271.00,132.00 280.00,132.00 280.00,132.00
             280.00,121.24 281.09,118.31 277.00,108.00
             277.00,108.00 283.06,108.00 283.06,108.00
             290.49,108.13 286.75,105.69 290.25,120.81
             290.25,120.81 296.00,162.00 296.00,162.00
             296.00,162.00 213.00,162.00 213.00,162.00
             213.00,162.00 217.28,131.00 217.28,131.00
             217.28,131.00 221.00,108.00 221.00,108.00
             221.00,108.00 236.00,108.00 236.00,108.00 Z
           M 237.50,105.81" />
</svg>
