<?xml version="1.0" encoding="UTF-8" standalone="no"?>
<!DOCTYPE svg PUBLIC "-//W3C//DTD SVG 20010904//EN"
              "http://www.w3.org/TR/2001/REC-SVG-20010904/DTD/svg10.dtd">

<svg xmlns="http://www.w3.org/2000/svg"
     width="5.53333in" height="6.01111in"
     viewBox="0 0 498 541">
  <path id="8"
        fill="none" stroke="black" stroke-width="1"
        d="M 229.42,69.00
           C 229.42,69.00 234.25,54.00 234.25,54.00
             234.25,54.00 242.00,54.00 242.00,54.00
             242.00,54.00 276.00,54.00 276.00,54.00
             276.00,54.00 281.11,73.00 281.11,73.00
             281.11,73.00 288.00,108.00 288.00,108.00
             283.92,108.00 280.00,108.00 277.00,108.00
             274.88,104.75 276.98,106.72 275.62,106.00
             274.88,106.55 274.71,107.69 273.94,108.00
             270.38,108.00 266.69,108.00 262.91,108.00
             261.83,102.09 263.00,98.50 256.38,95.75
             249.25,99.12 251.35,102.13 249.88,108.00
             249.88,108.00 244.69,108.00 239.12,108.00
             235.81,103.44 238.57,106.32 237.25,105.62
             237.40,106.48 238.25,103.50 236.06,108.00
             235.79,108.08 227.45,107.97 226.62,108.00
             222.50,108.00 222.72,108.00 221.00,108.00
             221.00,108.00 229.42,69.00 229.42,69.00 Z" />
</svg>
