<?xml version="1.0" encoding="utf-8" standalone="no"?>
<!DOCTYPE svg PUBLIC "-//W3C//DTD SVG 1.1//EN"
  "http://www.w3.org/Graphics/SVG/1.1/DTD/svg11.dtd">
<svg xmlns:xlink="http://www.w3.org/1999/xlink" width="720pt" height="720pt" viewBox="0 0 720 720" xmlns="http://www.w3.org/2000/svg" version="1.1">
 <metadata>
  <rdf:RDF xmlns:dc="http://purl.org/dc/elements/1.1/" xmlns:cc="http://creativecommons.org/ns#" xmlns:rdf="http://www.w3.org/1999/02/22-rdf-syntax-ns#">
   <cc:Work>
    <dc:type rdf:resource="http://purl.org/dc/dcmitype/StillImage"/>
    <dc:date>2024-09-08T10:44:45.285243</dc:date>
    <dc:format>image/svg+xml</dc:format>
    <dc:creator>
     <cc:Agent>
      <dc:title>Matplotlib v3.9.2, https://matplotlib.org/</dc:title>
     </cc:Agent>
    </dc:creator>
   </cc:Work>
  </rdf:RDF>
 </metadata>
 <defs>
  <style type="text/css">*{stroke-linejoin: round; stroke-linecap: butt}</style>
 </defs>
 <g id="figure_1">
  <g id="patch_1">
   <path d="M 0 720 
L 720 720 
L 720 0 
L 0 0 
z
" style="fill: #2e4c6d"/>
  </g>
  <g id="axes_1">
   <g id="patch_2">
    <path d="M 90 640.8 
L 648 640.8 
L 648 86.4 
L 90 86.4 
z
" style="fill: #2e4c6d"/>
   </g>
   <g id="matplotlib.axis_1">
    <g id="xtick_1">
     <g id="text_1">
      <!-- 2024 -->
      <g style="fill: #fc997c" transform="translate(635.765937 658.173594) scale(0.11 -0.11)">
       <defs>
        <path id="ArialMT-32" d="M 3222 541 
L 3222 0 
L 194 0 
Q 188 203 259 391 
Q 375 700 629 1000 
Q 884 1300 1366 1694 
Q 2113 2306 2375 2664 
Q 2638 3022 2638 3341 
Q 2638 3675 2398 3904 
Q 2159 4134 1775 4134 
Q 1369 4134 1125 3890 
Q 881 3647 878 3216 
L 300 3275 
Q 359 3922 746 4261 
Q 1134 4600 1788 4600 
Q 2447 4600 2831 4234 
Q 3216 3869 3216 3328 
Q 3216 3053 3103 2787 
Q 2991 2522 2730 2228 
Q 2469 1934 1863 1422 
Q 1356 997 1212 845 
Q 1069 694 975 541 
L 3222 541 
z
" transform="scale(0.015625)"/>
        <path id="ArialMT-30" d="M 266 2259 
Q 266 3072 433 3567 
Q 600 4063 929 4331 
Q 1259 4600 1759 4600 
Q 2128 4600 2406 4451 
Q 2684 4303 2865 4023 
Q 3047 3744 3150 3342 
Q 3253 2941 3253 2259 
Q 3253 1453 3087 958 
Q 2922 463 2592 192 
Q 2263 -78 1759 -78 
Q 1097 -78 719 397 
Q 266 969 266 2259 
z
M 844 2259 
Q 844 1131 1108 757 
Q 1372 384 1759 384 
Q 2147 384 2411 759 
Q 2675 1134 2675 2259 
Q 2675 3391 2411 3762 
Q 2147 4134 1753 4134 
Q 1366 4134 1134 3806 
Q 844 3388 844 2259 
z
" transform="scale(0.015625)"/>
        <path id="ArialMT-34" d="M 2069 0 
L 2069 1097 
L 81 1097 
L 81 1613 
L 2172 4581 
L 2631 4581 
L 2631 1613 
L 3250 1613 
L 3250 1097 
L 2631 1097 
L 2631 0 
L 2069 0 
z
M 2069 1613 
L 2069 3678 
L 634 1613 
L 2069 1613 
z
" transform="scale(0.015625)"/>
       </defs>
       <use xlink:href="#ArialMT-32"/>
       <use xlink:href="#ArialMT-30" x="55.615234"/>
       <use xlink:href="#ArialMT-32" x="111.230469"/>
       <use xlink:href="#ArialMT-34" x="166.845703"/>
      </g>
     </g>
    </g>
    <g id="xtick_2">
     <g id="text_2">
      <!-- 2023 -->
      <g style="fill: #fc997c" transform="translate(595.908795 658.173594) scale(0.11 -0.11)">
       <defs>
        <path id="ArialMT-33" d="M 269 1209 
L 831 1284 
Q 928 806 1161 595 
Q 1394 384 1728 384 
Q 2125 384 2398 659 
Q 2672 934 2672 1341 
Q 2672 1728 2419 1979 
Q 2166 2231 1775 2231 
Q 1616 2231 1378 2169 
L 1441 2663 
Q 1497 2656 1531 2656 
Q 1891 2656 2178 2843 
Q 2466 3031 2466 3422 
Q 2466 3731 2256 3934 
Q 2047 4138 1716 4138 
Q 1388 4138 1169 3931 
Q 950 3725 888 3313 
L 325 3413 
Q 428 3978 793 4289 
Q 1159 4600 1703 4600 
Q 2078 4600 2393 4439 
Q 2709 4278 2876 4000 
Q 3044 3722 3044 3409 
Q 3044 3113 2884 2869 
Q 2725 2625 2413 2481 
Q 2819 2388 3044 2092 
Q 3269 1797 3269 1353 
Q 3269 753 2831 336 
Q 2394 -81 1725 -81 
Q 1122 -81 723 278 
Q 325 638 269 1209 
z
" transform="scale(0.015625)"/>
       </defs>
       <use xlink:href="#ArialMT-32"/>
       <use xlink:href="#ArialMT-30" x="55.615234"/>
       <use xlink:href="#ArialMT-32" x="111.230469"/>
       <use xlink:href="#ArialMT-33" x="166.845703"/>
      </g>
     </g>
    </g>
    <g id="xtick_3">
     <g id="text_3">
      <!-- 2022 -->
      <g style="fill: #fc997c" transform="translate(556.051652 658.173594) scale(0.11 -0.11)">
       <use xlink:href="#ArialMT-32"/>
       <use xlink:href="#ArialMT-30" x="55.615234"/>
       <use xlink:href="#ArialMT-32" x="111.230469"/>
       <use xlink:href="#ArialMT-32" x="166.845703"/>
      </g>
     </g>
    </g>
    <g id="xtick_4">
     <g id="text_4">
      <!-- 2021 -->
      <g style="fill: #fc997c" transform="translate(516.194509 658.173594) scale(0.11 -0.11)">
       <defs>
        <path id="ArialMT-31" d="M 2384 0 
L 1822 0 
L 1822 3584 
Q 1619 3391 1289 3197 
Q 959 3003 697 2906 
L 697 3450 
Q 1169 3672 1522 3987 
Q 1875 4303 2022 4600 
L 2384 4600 
L 2384 0 
z
" transform="scale(0.015625)"/>
       </defs>
       <use xlink:href="#ArialMT-32"/>
       <use xlink:href="#ArialMT-30" x="55.615234"/>
       <use xlink:href="#ArialMT-32" x="111.230469"/>
       <use xlink:href="#ArialMT-31" x="166.845703"/>
      </g>
     </g>
    </g>
    <g id="xtick_5">
     <g id="text_5">
      <!-- 2020 -->
      <g style="fill: #fc997c" transform="translate(476.337366 658.173594) scale(0.11 -0.11)">
       <use xlink:href="#ArialMT-32"/>
       <use xlink:href="#ArialMT-30" x="55.615234"/>
       <use xlink:href="#ArialMT-32" x="111.230469"/>
       <use xlink:href="#ArialMT-30" x="166.845703"/>
      </g>
     </g>
    </g>
    <g id="xtick_6">
     <g id="text_6">
      <!-- 2019 -->
      <g style="fill: #fc997c" transform="translate(436.480223 658.173594) scale(0.11 -0.11)">
       <defs>
        <path id="ArialMT-39" d="M 350 1059 
L 891 1109 
Q 959 728 1153 556 
Q 1347 384 1650 384 
Q 1909 384 2104 503 
Q 2300 622 2425 820 
Q 2550 1019 2634 1356 
Q 2719 1694 2719 2044 
Q 2719 2081 2716 2156 
Q 2547 1888 2255 1720 
Q 1963 1553 1622 1553 
Q 1053 1553 659 1965 
Q 266 2378 266 3053 
Q 266 3750 677 4175 
Q 1088 4600 1706 4600 
Q 2153 4600 2523 4359 
Q 2894 4119 3086 3673 
Q 3278 3228 3278 2384 
Q 3278 1506 3087 986 
Q 2897 466 2520 194 
Q 2144 -78 1638 -78 
Q 1100 -78 759 220 
Q 419 519 350 1059 
z
M 2653 3081 
Q 2653 3566 2395 3850 
Q 2138 4134 1775 4134 
Q 1400 4134 1122 3828 
Q 844 3522 844 3034 
Q 844 2597 1108 2323 
Q 1372 2050 1759 2050 
Q 2150 2050 2401 2323 
Q 2653 2597 2653 3081 
z
" transform="scale(0.015625)"/>
       </defs>
       <use xlink:href="#ArialMT-32"/>
       <use xlink:href="#ArialMT-30" x="55.615234"/>
       <use xlink:href="#ArialMT-31" x="111.230469"/>
       <use xlink:href="#ArialMT-39" x="166.845703"/>
      </g>
     </g>
    </g>
    <g id="xtick_7">
     <g id="text_7">
      <!-- 2018 -->
      <g style="fill: #fc997c" transform="translate(396.62308 658.173594) scale(0.11 -0.11)">
       <defs>
        <path id="ArialMT-38" d="M 1131 2484 
Q 781 2613 612 2850 
Q 444 3088 444 3419 
Q 444 3919 803 4259 
Q 1163 4600 1759 4600 
Q 2359 4600 2725 4251 
Q 3091 3903 3091 3403 
Q 3091 3084 2923 2848 
Q 2756 2613 2416 2484 
Q 2838 2347 3058 2040 
Q 3278 1734 3278 1309 
Q 3278 722 2862 322 
Q 2447 -78 1769 -78 
Q 1091 -78 675 323 
Q 259 725 259 1325 
Q 259 1772 486 2073 
Q 713 2375 1131 2484 
z
M 1019 3438 
Q 1019 3113 1228 2906 
Q 1438 2700 1772 2700 
Q 2097 2700 2305 2904 
Q 2513 3109 2513 3406 
Q 2513 3716 2298 3927 
Q 2084 4138 1766 4138 
Q 1444 4138 1231 3931 
Q 1019 3725 1019 3438 
z
M 838 1322 
Q 838 1081 952 856 
Q 1066 631 1291 507 
Q 1516 384 1775 384 
Q 2178 384 2440 643 
Q 2703 903 2703 1303 
Q 2703 1709 2433 1975 
Q 2163 2241 1756 2241 
Q 1359 2241 1098 1978 
Q 838 1716 838 1322 
z
" transform="scale(0.015625)"/>
       </defs>
       <use xlink:href="#ArialMT-32"/>
       <use xlink:href="#ArialMT-30" x="55.615234"/>
       <use xlink:href="#ArialMT-31" x="111.230469"/>
       <use xlink:href="#ArialMT-38" x="166.845703"/>
      </g>
     </g>
    </g>
    <g id="xtick_8">
     <g id="text_8">
      <!-- 2017 -->
      <g style="fill: #fc997c" transform="translate(356.765938 658.173594) scale(0.11 -0.11)">
       <defs>
        <path id="ArialMT-37" d="M 303 3981 
L 303 4522 
L 3269 4522 
L 3269 4084 
Q 2831 3619 2401 2847 
Q 1972 2075 1738 1259 
Q 1569 684 1522 0 
L 944 0 
Q 953 541 1156 1306 
Q 1359 2072 1739 2783 
Q 2119 3494 2547 3981 
L 303 3981 
z
" transform="scale(0.015625)"/>
       </defs>
       <use xlink:href="#ArialMT-32"/>
       <use xlink:href="#ArialMT-30" x="55.615234"/>
       <use xlink:href="#ArialMT-31" x="111.230469"/>
       <use xlink:href="#ArialMT-37" x="166.845703"/>
      </g>
     </g>
    </g>
    <g id="xtick_9">
     <g id="text_9">
      <!-- 2016 -->
      <g style="fill: #fc997c" transform="translate(316.908795 658.173594) scale(0.11 -0.11)">
       <defs>
        <path id="ArialMT-36" d="M 3184 3459 
L 2625 3416 
Q 2550 3747 2413 3897 
Q 2184 4138 1850 4138 
Q 1581 4138 1378 3988 
Q 1113 3794 959 3422 
Q 806 3050 800 2363 
Q 1003 2672 1297 2822 
Q 1591 2972 1913 2972 
Q 2475 2972 2870 2558 
Q 3266 2144 3266 1488 
Q 3266 1056 3080 686 
Q 2894 316 2569 119 
Q 2244 -78 1831 -78 
Q 1128 -78 684 439 
Q 241 956 241 2144 
Q 241 3472 731 4075 
Q 1159 4600 1884 4600 
Q 2425 4600 2770 4297 
Q 3116 3994 3184 3459 
z
M 888 1484 
Q 888 1194 1011 928 
Q 1134 663 1356 523 
Q 1578 384 1822 384 
Q 2178 384 2434 671 
Q 2691 959 2691 1453 
Q 2691 1928 2437 2201 
Q 2184 2475 1800 2475 
Q 1419 2475 1153 2201 
Q 888 1928 888 1484 
z
" transform="scale(0.015625)"/>
       </defs>
       <use xlink:href="#ArialMT-32"/>
       <use xlink:href="#ArialMT-30" x="55.615234"/>
       <use xlink:href="#ArialMT-31" x="111.230469"/>
       <use xlink:href="#ArialMT-36" x="166.845703"/>
      </g>
     </g>
    </g>
    <g id="xtick_10">
     <g id="text_10">
      <!-- 2015 -->
      <g style="fill: #fc997c" transform="translate(277.051652 658.173594) scale(0.11 -0.11)">
       <defs>
        <path id="ArialMT-35" d="M 266 1200 
L 856 1250 
Q 922 819 1161 601 
Q 1400 384 1738 384 
Q 2144 384 2425 690 
Q 2706 997 2706 1503 
Q 2706 1984 2436 2262 
Q 2166 2541 1728 2541 
Q 1456 2541 1237 2417 
Q 1019 2294 894 2097 
L 366 2166 
L 809 4519 
L 3088 4519 
L 3088 3981 
L 1259 3981 
L 1013 2750 
Q 1425 3038 1878 3038 
Q 2478 3038 2890 2622 
Q 3303 2206 3303 1553 
Q 3303 931 2941 478 
Q 2500 -78 1738 -78 
Q 1113 -78 717 272 
Q 322 622 266 1200 
z
" transform="scale(0.015625)"/>
       </defs>
       <use xlink:href="#ArialMT-32"/>
       <use xlink:href="#ArialMT-30" x="55.615234"/>
       <use xlink:href="#ArialMT-31" x="111.230469"/>
       <use xlink:href="#ArialMT-35" x="166.845703"/>
      </g>
     </g>
    </g>
    <g id="xtick_11">
     <g id="text_11">
      <!-- 2014 -->
      <g style="fill: #fc997c" transform="translate(237.194509 658.173594) scale(0.11 -0.11)">
       <use xlink:href="#ArialMT-32"/>
       <use xlink:href="#ArialMT-30" x="55.615234"/>
       <use xlink:href="#ArialMT-31" x="111.230469"/>
       <use xlink:href="#ArialMT-34" x="166.845703"/>
      </g>
     </g>
    </g>
    <g id="xtick_12">
     <g id="text_12">
      <!-- 2013 -->
      <g style="fill: #fc997c" transform="translate(197.337366 658.173594) scale(0.11 -0.11)">
       <use xlink:href="#ArialMT-32"/>
       <use xlink:href="#ArialMT-30" x="55.615234"/>
       <use xlink:href="#ArialMT-31" x="111.230469"/>
       <use xlink:href="#ArialMT-33" x="166.845703"/>
      </g>
     </g>
    </g>
    <g id="xtick_13">
     <g id="text_13">
      <!-- 2012 -->
      <g style="fill: #fc997c" transform="translate(157.480223 658.173594) scale(0.11 -0.11)">
       <use xlink:href="#ArialMT-32"/>
       <use xlink:href="#ArialMT-30" x="55.615234"/>
       <use xlink:href="#ArialMT-31" x="111.230469"/>
       <use xlink:href="#ArialMT-32" x="166.845703"/>
      </g>
     </g>
    </g>
    <g id="xtick_14">
     <g id="text_14">
      <!-- 2011 -->
      <g style="fill: #fc997c" transform="translate(118.028705 658.173594) scale(0.11 -0.11)">
       <use xlink:href="#ArialMT-32"/>
       <use xlink:href="#ArialMT-30" x="55.615234"/>
       <use xlink:href="#ArialMT-31" x="111.230469"/>
       <use xlink:href="#ArialMT-31" x="159.470703"/>
      </g>
     </g>
    </g>
    <g id="xtick_15">
     <g id="text_15">
      <!-- 2010 -->
      <g style="fill: #fc997c" transform="translate(77.765938 658.173594) scale(0.11 -0.11)">
       <use xlink:href="#ArialMT-32"/>
       <use xlink:href="#ArialMT-30" x="55.615234"/>
       <use xlink:href="#ArialMT-31" x="111.230469"/>
       <use xlink:href="#ArialMT-30" x="166.845703"/>
      </g>
     </g>
    </g>
    <g id="text_16">
     <!-- Year -->
     <g style="fill: #fc997c" transform="translate(356.874375 672.949219) scale(0.12 -0.12)">
      <defs>
       <path id="ArialMT-59" d="M 1784 0 
L 1784 1941 
L 19 4581 
L 756 4581 
L 1659 3200 
Q 1909 2813 2125 2425 
Q 2331 2784 2625 3234 
L 3513 4581 
L 4219 4581 
L 2391 1941 
L 2391 0 
L 1784 0 
z
" transform="scale(0.015625)"/>
       <path id="ArialMT-65" d="M 2694 1069 
L 3275 997 
Q 3138 488 2766 206 
Q 2394 -75 1816 -75 
Q 1088 -75 661 373 
Q 234 822 234 1631 
Q 234 2469 665 2931 
Q 1097 3394 1784 3394 
Q 2450 3394 2872 2941 
Q 3294 2488 3294 1666 
Q 3294 1616 3291 1516 
L 816 1516 
Q 847 969 1125 678 
Q 1403 388 1819 388 
Q 2128 388 2347 550 
Q 2566 713 2694 1069 
z
M 847 1978 
L 2700 1978 
Q 2663 2397 2488 2606 
Q 2219 2931 1791 2931 
Q 1403 2931 1139 2672 
Q 875 2413 847 1978 
z
" transform="scale(0.015625)"/>
       <path id="ArialMT-61" d="M 2588 409 
Q 2275 144 1986 34 
Q 1697 -75 1366 -75 
Q 819 -75 525 192 
Q 231 459 231 875 
Q 231 1119 342 1320 
Q 453 1522 633 1644 
Q 813 1766 1038 1828 
Q 1203 1872 1538 1913 
Q 2219 1994 2541 2106 
Q 2544 2222 2544 2253 
Q 2544 2597 2384 2738 
Q 2169 2928 1744 2928 
Q 1347 2928 1158 2789 
Q 969 2650 878 2297 
L 328 2372 
Q 403 2725 575 2942 
Q 747 3159 1072 3276 
Q 1397 3394 1825 3394 
Q 2250 3394 2515 3294 
Q 2781 3194 2906 3042 
Q 3031 2891 3081 2659 
Q 3109 2516 3109 2141 
L 3109 1391 
Q 3109 606 3145 398 
Q 3181 191 3288 0 
L 2700 0 
Q 2613 175 2588 409 
z
M 2541 1666 
Q 2234 1541 1622 1453 
Q 1275 1403 1131 1340 
Q 988 1278 909 1158 
Q 831 1038 831 891 
Q 831 666 1001 516 
Q 1172 366 1500 366 
Q 1825 366 2078 508 
Q 2331 650 2450 897 
Q 2541 1088 2541 1459 
L 2541 1666 
z
" transform="scale(0.015625)"/>
       <path id="ArialMT-72" d="M 416 0 
L 416 3319 
L 922 3319 
L 922 2816 
Q 1116 3169 1280 3281 
Q 1444 3394 1641 3394 
Q 1925 3394 2219 3213 
L 2025 2691 
Q 1819 2813 1613 2813 
Q 1428 2813 1281 2702 
Q 1134 2591 1072 2394 
Q 978 2094 978 1738 
L 978 0 
L 416 0 
z
" transform="scale(0.015625)"/>
      </defs>
      <use xlink:href="#ArialMT-59"/>
      <use xlink:href="#ArialMT-65" x="57.574219"/>
      <use xlink:href="#ArialMT-61" x="113.189453"/>
      <use xlink:href="#ArialMT-72" x="168.804688"/>
     </g>
    </g>
   </g>
   <g id="matplotlib.axis_2">
    <g id="ytick_1">
     <g id="text_17">
      <!-- 0 -->
      <g style="fill: #fc997c" transform="translate(74.382969 644.736797) scale(0.11 -0.11)">
       <use xlink:href="#ArialMT-30"/>
      </g>
     </g>
    </g>
    <g id="ytick_2">
     <g id="text_18">
      <!-- 20 -->
      <g style="fill: #fc997c" transform="translate(68.265938 571.909211) scale(0.11 -0.11)">
       <use xlink:href="#ArialMT-32"/>
       <use xlink:href="#ArialMT-30" x="55.615234"/>
      </g>
     </g>
    </g>
    <g id="ytick_3">
     <g id="text_19">
      <!-- 40 -->
      <g style="fill: #fc997c" transform="translate(68.265938 499.081624) scale(0.11 -0.11)">
       <use xlink:href="#ArialMT-34"/>
       <use xlink:href="#ArialMT-30" x="55.615234"/>
      </g>
     </g>
    </g>
    <g id="ytick_4">
     <g id="text_20">
      <!-- 60 -->
      <g style="fill: #fc997c" transform="translate(68.265938 426.254038) scale(0.11 -0.11)">
       <use xlink:href="#ArialMT-36"/>
       <use xlink:href="#ArialMT-30" x="55.615234"/>
      </g>
     </g>
    </g>
    <g id="ytick_5">
     <g id="text_21">
      <!-- 80 -->
      <g style="fill: #fc997c" transform="translate(68.265938 353.426452) scale(0.11 -0.11)">
       <use xlink:href="#ArialMT-38"/>
       <use xlink:href="#ArialMT-30" x="55.615234"/>
      </g>
     </g>
    </g>
    <g id="ytick_6">
     <g id="text_22">
      <!-- 100 -->
      <g style="fill: #fc997c" transform="translate(62.148906 280.598866) scale(0.11 -0.11)">
       <use xlink:href="#ArialMT-31"/>
       <use xlink:href="#ArialMT-30" x="55.615234"/>
       <use xlink:href="#ArialMT-30" x="111.230469"/>
      </g>
     </g>
    </g>
    <g id="ytick_7">
     <g id="text_23">
      <!-- 120 -->
      <g style="fill: #fc997c" transform="translate(62.148906 207.77128) scale(0.11 -0.11)">
       <use xlink:href="#ArialMT-31"/>
       <use xlink:href="#ArialMT-32" x="55.615234"/>
       <use xlink:href="#ArialMT-30" x="111.230469"/>
      </g>
     </g>
    </g>
    <g id="ytick_8">
     <g id="text_24">
      <!-- 140 -->
      <g style="fill: #fc997c" transform="translate(62.148906 134.943693) scale(0.11 -0.11)">
       <use xlink:href="#ArialMT-31"/>
       <use xlink:href="#ArialMT-34" x="55.615234"/>
       <use xlink:href="#ArialMT-30" x="111.230469"/>
      </g>
     </g>
    </g>
    <g id="text_25">
     <!-- Number of activities -->
     <g style="fill: #fc997c" transform="translate(55.763906 416.281875) rotate(-90) scale(0.12 -0.12)">
      <defs>
       <path id="ArialMT-4e" d="M 488 0 
L 488 4581 
L 1109 4581 
L 3516 984 
L 3516 4581 
L 4097 4581 
L 4097 0 
L 3475 0 
L 1069 3600 
L 1069 0 
L 488 0 
z
" transform="scale(0.015625)"/>
       <path id="ArialMT-75" d="M 2597 0 
L 2597 488 
Q 2209 -75 1544 -75 
Q 1250 -75 995 37 
Q 741 150 617 320 
Q 494 491 444 738 
Q 409 903 409 1263 
L 409 3319 
L 972 3319 
L 972 1478 
Q 972 1038 1006 884 
Q 1059 663 1231 536 
Q 1403 409 1656 409 
Q 1909 409 2131 539 
Q 2353 669 2445 892 
Q 2538 1116 2538 1541 
L 2538 3319 
L 3100 3319 
L 3100 0 
L 2597 0 
z
" transform="scale(0.015625)"/>
       <path id="ArialMT-6d" d="M 422 0 
L 422 3319 
L 925 3319 
L 925 2853 
Q 1081 3097 1340 3245 
Q 1600 3394 1931 3394 
Q 2300 3394 2536 3241 
Q 2772 3088 2869 2813 
Q 3263 3394 3894 3394 
Q 4388 3394 4653 3120 
Q 4919 2847 4919 2278 
L 4919 0 
L 4359 0 
L 4359 2091 
Q 4359 2428 4304 2576 
Q 4250 2725 4106 2815 
Q 3963 2906 3769 2906 
Q 3419 2906 3187 2673 
Q 2956 2441 2956 1928 
L 2956 0 
L 2394 0 
L 2394 2156 
Q 2394 2531 2256 2718 
Q 2119 2906 1806 2906 
Q 1569 2906 1367 2781 
Q 1166 2656 1075 2415 
Q 984 2175 984 1722 
L 984 0 
L 422 0 
z
" transform="scale(0.015625)"/>
       <path id="ArialMT-62" d="M 941 0 
L 419 0 
L 419 4581 
L 981 4581 
L 981 2947 
Q 1338 3394 1891 3394 
Q 2197 3394 2470 3270 
Q 2744 3147 2920 2923 
Q 3097 2700 3197 2384 
Q 3297 2069 3297 1709 
Q 3297 856 2875 390 
Q 2453 -75 1863 -75 
Q 1275 -75 941 416 
L 941 0 
z
M 934 1684 
Q 934 1088 1097 822 
Q 1363 388 1816 388 
Q 2184 388 2453 708 
Q 2722 1028 2722 1663 
Q 2722 2313 2464 2622 
Q 2206 2931 1841 2931 
Q 1472 2931 1203 2611 
Q 934 2291 934 1684 
z
" transform="scale(0.015625)"/>
       <path id="ArialMT-20" transform="scale(0.015625)"/>
       <path id="ArialMT-6f" d="M 213 1659 
Q 213 2581 725 3025 
Q 1153 3394 1769 3394 
Q 2453 3394 2887 2945 
Q 3322 2497 3322 1706 
Q 3322 1066 3130 698 
Q 2938 331 2570 128 
Q 2203 -75 1769 -75 
Q 1072 -75 642 372 
Q 213 819 213 1659 
z
M 791 1659 
Q 791 1022 1069 705 
Q 1347 388 1769 388 
Q 2188 388 2466 706 
Q 2744 1025 2744 1678 
Q 2744 2294 2464 2611 
Q 2184 2928 1769 2928 
Q 1347 2928 1069 2612 
Q 791 2297 791 1659 
z
" transform="scale(0.015625)"/>
       <path id="ArialMT-66" d="M 556 0 
L 556 2881 
L 59 2881 
L 59 3319 
L 556 3319 
L 556 3672 
Q 556 4006 616 4169 
Q 697 4388 901 4523 
Q 1106 4659 1475 4659 
Q 1713 4659 2000 4603 
L 1916 4113 
Q 1741 4144 1584 4144 
Q 1328 4144 1222 4034 
Q 1116 3925 1116 3625 
L 1116 3319 
L 1763 3319 
L 1763 2881 
L 1116 2881 
L 1116 0 
L 556 0 
z
" transform="scale(0.015625)"/>
       <path id="ArialMT-63" d="M 2588 1216 
L 3141 1144 
Q 3050 572 2676 248 
Q 2303 -75 1759 -75 
Q 1078 -75 664 370 
Q 250 816 250 1647 
Q 250 2184 428 2587 
Q 606 2991 970 3192 
Q 1334 3394 1763 3394 
Q 2303 3394 2647 3120 
Q 2991 2847 3088 2344 
L 2541 2259 
Q 2463 2594 2264 2762 
Q 2066 2931 1784 2931 
Q 1359 2931 1093 2626 
Q 828 2322 828 1663 
Q 828 994 1084 691 
Q 1341 388 1753 388 
Q 2084 388 2306 591 
Q 2528 794 2588 1216 
z
" transform="scale(0.015625)"/>
       <path id="ArialMT-74" d="M 1650 503 
L 1731 6 
Q 1494 -44 1306 -44 
Q 1000 -44 831 53 
Q 663 150 594 308 
Q 525 466 525 972 
L 525 2881 
L 113 2881 
L 113 3319 
L 525 3319 
L 525 4141 
L 1084 4478 
L 1084 3319 
L 1650 3319 
L 1650 2881 
L 1084 2881 
L 1084 941 
Q 1084 700 1114 631 
Q 1144 563 1211 522 
Q 1278 481 1403 481 
Q 1497 481 1650 503 
z
" transform="scale(0.015625)"/>
       <path id="ArialMT-69" d="M 425 3934 
L 425 4581 
L 988 4581 
L 988 3934 
L 425 3934 
z
M 425 0 
L 425 3319 
L 988 3319 
L 988 0 
L 425 0 
z
" transform="scale(0.015625)"/>
       <path id="ArialMT-76" d="M 1344 0 
L 81 3319 
L 675 3319 
L 1388 1331 
Q 1503 1009 1600 663 
Q 1675 925 1809 1294 
L 2547 3319 
L 3125 3319 
L 1869 0 
L 1344 0 
z
" transform="scale(0.015625)"/>
       <path id="ArialMT-73" d="M 197 991 
L 753 1078 
Q 800 744 1014 566 
Q 1228 388 1613 388 
Q 2000 388 2187 545 
Q 2375 703 2375 916 
Q 2375 1106 2209 1216 
Q 2094 1291 1634 1406 
Q 1016 1563 777 1677 
Q 538 1791 414 1992 
Q 291 2194 291 2438 
Q 291 2659 392 2848 
Q 494 3038 669 3163 
Q 800 3259 1026 3326 
Q 1253 3394 1513 3394 
Q 1903 3394 2198 3281 
Q 2494 3169 2634 2976 
Q 2775 2784 2828 2463 
L 2278 2388 
Q 2241 2644 2061 2787 
Q 1881 2931 1553 2931 
Q 1166 2931 1000 2803 
Q 834 2675 834 2503 
Q 834 2394 903 2306 
Q 972 2216 1119 2156 
Q 1203 2125 1616 2013 
Q 2213 1853 2448 1751 
Q 2684 1650 2818 1456 
Q 2953 1263 2953 975 
Q 2953 694 2789 445 
Q 2625 197 2315 61 
Q 2006 -75 1616 -75 
Q 969 -75 630 194 
Q 291 463 197 991 
z
" transform="scale(0.015625)"/>
      </defs>
      <use xlink:href="#ArialMT-4e"/>
      <use xlink:href="#ArialMT-75" x="72.216797"/>
      <use xlink:href="#ArialMT-6d" x="127.832031"/>
      <use xlink:href="#ArialMT-62" x="211.132812"/>
      <use xlink:href="#ArialMT-65" x="266.748047"/>
      <use xlink:href="#ArialMT-72" x="322.363281"/>
      <use xlink:href="#ArialMT-20" x="355.664062"/>
      <use xlink:href="#ArialMT-6f" x="383.447266"/>
      <use xlink:href="#ArialMT-66" x="439.0625"/>
      <use xlink:href="#ArialMT-20" x="466.845703"/>
      <use xlink:href="#ArialMT-61" x="494.628906"/>
      <use xlink:href="#ArialMT-63" x="550.244141"/>
      <use xlink:href="#ArialMT-74" x="600.244141"/>
      <use xlink:href="#ArialMT-69" x="628.027344"/>
      <use xlink:href="#ArialMT-76" x="650.244141"/>
      <use xlink:href="#ArialMT-69" x="700.244141"/>
      <use xlink:href="#ArialMT-74" x="722.460938"/>
      <use xlink:href="#ArialMT-69" x="750.244141"/>
      <use xlink:href="#ArialMT-65" x="772.460938"/>
      <use xlink:href="#ArialMT-73" x="828.076172"/>
     </g>
    </g>
   </g>
   <g id="patch_3">
    <path d="M 667.928571 640.8 
L 628.071429 640.8 
L 628.071429 640.8 
L 667.928571 640.8 
z
" clip-path="url(#p448e9bb448)" style="fill: #2d1e3e; fill-opacity: 0.75; stroke: #fc997c; stroke-linejoin: miter"/>
   </g>
   <g id="patch_4">
    <path d="M 628.071429 640.8 
L 588.214286 640.8 
L 588.214286 637.158621 
L 628.071429 637.158621 
z
" clip-path="url(#p448e9bb448)" style="fill: #2d1e3e; fill-opacity: 0.75; stroke: #fc997c; stroke-linejoin: miter"/>
   </g>
   <g id="patch_5">
    <path d="M 588.214286 640.8 
L 548.357143 640.8 
L 548.357143 640.8 
L 588.214286 640.8 
z
" clip-path="url(#p448e9bb448)" style="fill: #2d1e3e; fill-opacity: 0.75; stroke: #fc997c; stroke-linejoin: miter"/>
   </g>
   <g id="patch_6">
    <path d="M 548.357143 640.8 
L 508.5 640.8 
L 508.5 640.8 
L 548.357143 640.8 
z
" clip-path="url(#p448e9bb448)" style="fill: #2d1e3e; fill-opacity: 0.75; stroke: #fc997c; stroke-linejoin: miter"/>
   </g>
   <g id="patch_7">
    <path d="M 508.5 640.8 
L 468.642857 640.8 
L 468.642857 640.8 
L 508.5 640.8 
z
" clip-path="url(#p448e9bb448)" style="fill: #2d1e3e; fill-opacity: 0.75; stroke: #fc997c; stroke-linejoin: miter"/>
   </g>
   <g id="patch_8">
    <path d="M 468.642857 640.8 
L 428.785714 640.8 
L 428.785714 640.8 
L 468.642857 640.8 
z
" clip-path="url(#p448e9bb448)" style="fill: #2d1e3e; fill-opacity: 0.75; stroke: #fc997c; stroke-linejoin: miter"/>
   </g>
   <g id="patch_9">
    <path d="M 428.785714 640.8 
L 388.928571 640.8 
L 388.928571 640.8 
L 428.785714 640.8 
z
" clip-path="url(#p448e9bb448)" style="fill: #2d1e3e; fill-opacity: 0.75; stroke: #fc997c; stroke-linejoin: miter"/>
   </g>
   <g id="patch_10">
    <path d="M 388.928571 640.8 
L 349.071429 640.8 
L 349.071429 640.8 
L 388.928571 640.8 
z
" clip-path="url(#p448e9bb448)" style="fill: #2d1e3e; fill-opacity: 0.75; stroke: #fc997c; stroke-linejoin: miter"/>
   </g>
   <g id="patch_11">
    <path d="M 349.071429 640.8 
L 309.214286 640.8 
L 309.214286 637.158621 
L 349.071429 637.158621 
z
" clip-path="url(#p448e9bb448)" style="fill: #2d1e3e; fill-opacity: 0.75; stroke: #fc997c; stroke-linejoin: miter"/>
   </g>
   <g id="patch_12">
    <path d="M 309.214286 640.8 
L 269.357143 640.8 
L 269.357143 637.158621 
L 309.214286 637.158621 
z
" clip-path="url(#p448e9bb448)" style="fill: #2d1e3e; fill-opacity: 0.75; stroke: #fc997c; stroke-linejoin: miter"/>
   </g>
   <g id="patch_13">
    <path d="M 269.357143 640.8 
L 229.5 640.8 
L 229.5 640.8 
L 269.357143 640.8 
z
" clip-path="url(#p448e9bb448)" style="fill: #2d1e3e; fill-opacity: 0.75; stroke: #fc997c; stroke-linejoin: miter"/>
   </g>
   <g id="patch_14">
    <path d="M 229.5 640.8 
L 189.642857 640.8 
L 189.642857 640.8 
L 229.5 640.8 
z
" clip-path="url(#p448e9bb448)" style="fill: #2d1e3e; fill-opacity: 0.75; stroke: #fc997c; stroke-linejoin: miter"/>
   </g>
   <g id="patch_15">
    <path d="M 189.642857 640.8 
L 149.785714 640.8 
L 149.785714 640.8 
L 189.642857 640.8 
z
" clip-path="url(#p448e9bb448)" style="fill: #2d1e3e; fill-opacity: 0.75; stroke: #fc997c; stroke-linejoin: miter"/>
   </g>
   <g id="patch_16">
    <path d="M 149.785714 640.8 
L 109.928571 640.8 
L 109.928571 640.8 
L 149.785714 640.8 
z
" clip-path="url(#p448e9bb448)" style="fill: #2d1e3e; fill-opacity: 0.75; stroke: #fc997c; stroke-linejoin: miter"/>
   </g>
   <g id="patch_17">
    <path d="M 109.928571 640.8 
L 70.071429 640.8 
L 70.071429 640.8 
L 109.928571 640.8 
z
" clip-path="url(#p448e9bb448)" style="fill: #2d1e3e; fill-opacity: 0.75; stroke: #fc997c; stroke-linejoin: miter"/>
   </g>
   <g id="patch_18">
    <path d="M 667.928571 640.8 
L 628.071429 640.8 
L 628.071429 633.517241 
L 667.928571 633.517241 
z
" clip-path="url(#p448e9bb448)" style="fill: #a9678f; fill-opacity: 0.75; stroke: #fc997c; stroke-linejoin: miter"/>
   </g>
   <g id="patch_19">
    <path d="M 628.071429 637.158621 
L 588.214286 637.158621 
L 588.214286 608.027586 
L 628.071429 608.027586 
z
" clip-path="url(#p448e9bb448)" style="fill: #a9678f; fill-opacity: 0.75; stroke: #fc997c; stroke-linejoin: miter"/>
   </g>
   <g id="patch_20">
    <path d="M 588.214286 640.8 
L 548.357143 640.8 
L 548.357143 640.8 
L 588.214286 640.8 
z
" clip-path="url(#p448e9bb448)" style="fill: #a9678f; fill-opacity: 0.75; stroke: #fc997c; stroke-linejoin: miter"/>
   </g>
   <g id="patch_21">
    <path d="M 548.357143 640.8 
L 508.5 640.8 
L 508.5 640.8 
L 548.357143 640.8 
z
" clip-path="url(#p448e9bb448)" style="fill: #a9678f; fill-opacity: 0.75; stroke: #fc997c; stroke-linejoin: miter"/>
   </g>
   <g id="patch_22">
    <path d="M 508.5 640.8 
L 468.642857 640.8 
L 468.642857 640.8 
L 508.5 640.8 
z
" clip-path="url(#p448e9bb448)" style="fill: #a9678f; fill-opacity: 0.75; stroke: #fc997c; stroke-linejoin: miter"/>
   </g>
   <g id="patch_23">
    <path d="M 468.642857 640.8 
L 428.785714 640.8 
L 428.785714 640.8 
L 468.642857 640.8 
z
" clip-path="url(#p448e9bb448)" style="fill: #a9678f; fill-opacity: 0.75; stroke: #fc997c; stroke-linejoin: miter"/>
   </g>
   <g id="patch_24">
    <path d="M 428.785714 640.8 
L 388.928571 640.8 
L 388.928571 637.158621 
L 428.785714 637.158621 
z
" clip-path="url(#p448e9bb448)" style="fill: #a9678f; fill-opacity: 0.75; stroke: #fc997c; stroke-linejoin: miter"/>
   </g>
   <g id="patch_25">
    <path d="M 388.928571 640.8 
L 349.071429 640.8 
L 349.071429 637.158621 
L 388.928571 637.158621 
z
" clip-path="url(#p448e9bb448)" style="fill: #a9678f; fill-opacity: 0.75; stroke: #fc997c; stroke-linejoin: miter"/>
   </g>
   <g id="patch_26">
    <path d="M 349.071429 637.158621 
L 309.214286 637.158621 
L 309.214286 608.027586 
L 349.071429 608.027586 
z
" clip-path="url(#p448e9bb448)" style="fill: #a9678f; fill-opacity: 0.75; stroke: #fc997c; stroke-linejoin: miter"/>
   </g>
   <g id="patch_27">
    <path d="M 309.214286 637.158621 
L 269.357143 637.158621 
L 269.357143 600.744828 
L 309.214286 600.744828 
z
" clip-path="url(#p448e9bb448)" style="fill: #a9678f; fill-opacity: 0.75; stroke: #fc997c; stroke-linejoin: miter"/>
   </g>
   <g id="patch_28">
    <path d="M 269.357143 640.8 
L 229.5 640.8 
L 229.5 640.8 
L 269.357143 640.8 
z
" clip-path="url(#p448e9bb448)" style="fill: #a9678f; fill-opacity: 0.75; stroke: #fc997c; stroke-linejoin: miter"/>
   </g>
   <g id="patch_29">
    <path d="M 229.5 640.8 
L 189.642857 640.8 
L 189.642857 640.8 
L 229.5 640.8 
z
" clip-path="url(#p448e9bb448)" style="fill: #a9678f; fill-opacity: 0.75; stroke: #fc997c; stroke-linejoin: miter"/>
   </g>
   <g id="patch_30">
    <path d="M 189.642857 640.8 
L 149.785714 640.8 
L 149.785714 633.517241 
L 189.642857 633.517241 
z
" clip-path="url(#p448e9bb448)" style="fill: #a9678f; fill-opacity: 0.75; stroke: #fc997c; stroke-linejoin: miter"/>
   </g>
   <g id="patch_31">
    <path d="M 149.785714 640.8 
L 109.928571 640.8 
L 109.928571 633.517241 
L 149.785714 633.517241 
z
" clip-path="url(#p448e9bb448)" style="fill: #a9678f; fill-opacity: 0.75; stroke: #fc997c; stroke-linejoin: miter"/>
   </g>
   <g id="patch_32">
    <path d="M 109.928571 640.8 
L 70.071429 640.8 
L 70.071429 640.8 
L 109.928571 640.8 
z
" clip-path="url(#p448e9bb448)" style="fill: #a9678f; fill-opacity: 0.75; stroke: #fc997c; stroke-linejoin: miter"/>
   </g>
   <g id="patch_33">
    <path d="M 667.928571 633.517241 
L 628.071429 633.517241 
L 628.071429 611.668966 
L 667.928571 611.668966 
z
" clip-path="url(#p448e9bb448)" style="fill: #c4829c; fill-opacity: 0.75; stroke: #fc997c; stroke-linejoin: miter"/>
   </g>
   <g id="patch_34">
    <path d="M 628.071429 608.027586 
L 588.214286 608.027586 
L 588.214286 557.048276 
L 628.071429 557.048276 
z
" clip-path="url(#p448e9bb448)" style="fill: #c4829c; fill-opacity: 0.75; stroke: #fc997c; stroke-linejoin: miter"/>
   </g>
   <g id="patch_35">
    <path d="M 588.214286 640.8 
L 548.357143 640.8 
L 548.357143 622.593103 
L 588.214286 622.593103 
z
" clip-path="url(#p448e9bb448)" style="fill: #c4829c; fill-opacity: 0.75; stroke: #fc997c; stroke-linejoin: miter"/>
   </g>
   <g id="patch_36">
    <path d="M 548.357143 640.8 
L 508.5 640.8 
L 508.5 640.8 
L 548.357143 640.8 
z
" clip-path="url(#p448e9bb448)" style="fill: #c4829c; fill-opacity: 0.75; stroke: #fc997c; stroke-linejoin: miter"/>
   </g>
   <g id="patch_37">
    <path d="M 508.5 640.8 
L 468.642857 640.8 
L 468.642857 640.8 
L 508.5 640.8 
z
" clip-path="url(#p448e9bb448)" style="fill: #c4829c; fill-opacity: 0.75; stroke: #fc997c; stroke-linejoin: miter"/>
   </g>
   <g id="patch_38">
    <path d="M 468.642857 640.8 
L 428.785714 640.8 
L 428.785714 640.8 
L 468.642857 640.8 
z
" clip-path="url(#p448e9bb448)" style="fill: #c4829c; fill-opacity: 0.75; stroke: #fc997c; stroke-linejoin: miter"/>
   </g>
   <g id="patch_39">
    <path d="M 428.785714 637.158621 
L 388.928571 637.158621 
L 388.928571 622.593103 
L 428.785714 622.593103 
z
" clip-path="url(#p448e9bb448)" style="fill: #c4829c; fill-opacity: 0.75; stroke: #fc997c; stroke-linejoin: miter"/>
   </g>
   <g id="patch_40">
    <path d="M 388.928571 637.158621 
L 349.071429 637.158621 
L 349.071429 629.875862 
L 388.928571 629.875862 
z
" clip-path="url(#p448e9bb448)" style="fill: #c4829c; fill-opacity: 0.75; stroke: #fc997c; stroke-linejoin: miter"/>
   </g>
   <g id="patch_41">
    <path d="M 349.071429 608.027586 
L 309.214286 608.027586 
L 309.214286 600.744828 
L 349.071429 600.744828 
z
" clip-path="url(#p448e9bb448)" style="fill: #c4829c; fill-opacity: 0.75; stroke: #fc997c; stroke-linejoin: miter"/>
   </g>
   <g id="patch_42">
    <path d="M 309.214286 600.744828 
L 269.357143 600.744828 
L 269.357143 578.896552 
L 309.214286 578.896552 
z
" clip-path="url(#p448e9bb448)" style="fill: #c4829c; fill-opacity: 0.75; stroke: #fc997c; stroke-linejoin: miter"/>
   </g>
   <g id="patch_43">
    <path d="M 269.357143 640.8 
L 229.5 640.8 
L 229.5 629.875862 
L 269.357143 629.875862 
z
" clip-path="url(#p448e9bb448)" style="fill: #c4829c; fill-opacity: 0.75; stroke: #fc997c; stroke-linejoin: miter"/>
   </g>
   <g id="patch_44">
    <path d="M 229.5 640.8 
L 189.642857 640.8 
L 189.642857 629.875862 
L 229.5 629.875862 
z
" clip-path="url(#p448e9bb448)" style="fill: #c4829c; fill-opacity: 0.75; stroke: #fc997c; stroke-linejoin: miter"/>
   </g>
   <g id="patch_45">
    <path d="M 189.642857 633.517241 
L 149.785714 633.517241 
L 149.785714 629.875862 
L 189.642857 629.875862 
z
" clip-path="url(#p448e9bb448)" style="fill: #c4829c; fill-opacity: 0.75; stroke: #fc997c; stroke-linejoin: miter"/>
   </g>
   <g id="patch_46">
    <path d="M 149.785714 633.517241 
L 109.928571 633.517241 
L 109.928571 618.951724 
L 149.785714 618.951724 
z
" clip-path="url(#p448e9bb448)" style="fill: #c4829c; fill-opacity: 0.75; stroke: #fc997c; stroke-linejoin: miter"/>
   </g>
   <g id="patch_47">
    <path d="M 109.928571 640.8 
L 70.071429 640.8 
L 70.071429 640.8 
L 109.928571 640.8 
z
" clip-path="url(#p448e9bb448)" style="fill: #c4829c; fill-opacity: 0.75; stroke: #fc997c; stroke-linejoin: miter"/>
   </g>
   <g id="patch_48">
    <path d="M 667.928571 611.668966 
L 628.071429 611.668966 
L 628.071429 458.731034 
L 667.928571 458.731034 
z
" clip-path="url(#p448e9bb448)" style="fill: #d69ca8; fill-opacity: 0.75; stroke: #fc997c; stroke-linejoin: miter"/>
   </g>
   <g id="patch_49">
    <path d="M 628.071429 557.048276 
L 588.214286 557.048276 
L 588.214286 418.675862 
L 628.071429 418.675862 
z
" clip-path="url(#p448e9bb448)" style="fill: #d69ca8; fill-opacity: 0.75; stroke: #fc997c; stroke-linejoin: miter"/>
   </g>
   <g id="patch_50">
    <path d="M 588.214286 622.593103 
L 548.357143 622.593103 
L 548.357143 564.331034 
L 588.214286 564.331034 
z
" clip-path="url(#p448e9bb448)" style="fill: #d69ca8; fill-opacity: 0.75; stroke: #fc997c; stroke-linejoin: miter"/>
   </g>
   <g id="patch_51">
    <path d="M 548.357143 640.8 
L 508.5 640.8 
L 508.5 557.048276 
L 548.357143 557.048276 
z
" clip-path="url(#p448e9bb448)" style="fill: #d69ca8; fill-opacity: 0.75; stroke: #fc997c; stroke-linejoin: miter"/>
   </g>
   <g id="patch_52">
    <path d="M 508.5 640.8 
L 468.642857 640.8 
L 468.642857 578.896552 
L 508.5 578.896552 
z
" clip-path="url(#p448e9bb448)" style="fill: #d69ca8; fill-opacity: 0.75; stroke: #fc997c; stroke-linejoin: miter"/>
   </g>
   <g id="patch_53">
    <path d="M 468.642857 640.8 
L 428.785714 640.8 
L 428.785714 633.517241 
L 468.642857 633.517241 
z
" clip-path="url(#p448e9bb448)" style="fill: #d69ca8; fill-opacity: 0.75; stroke: #fc997c; stroke-linejoin: miter"/>
   </g>
   <g id="patch_54">
    <path d="M 428.785714 622.593103 
L 388.928571 622.593103 
L 388.928571 586.17931 
L 428.785714 586.17931 
z
" clip-path="url(#p448e9bb448)" style="fill: #d69ca8; fill-opacity: 0.75; stroke: #fc997c; stroke-linejoin: miter"/>
   </g>
   <g id="patch_55">
    <path d="M 388.928571 629.875862 
L 349.071429 629.875862 
L 349.071429 549.765517 
L 388.928571 549.765517 
z
" clip-path="url(#p448e9bb448)" style="fill: #d69ca8; fill-opacity: 0.75; stroke: #fc997c; stroke-linejoin: miter"/>
   </g>
   <g id="patch_56">
    <path d="M 349.071429 600.744828 
L 309.214286 600.744828 
L 309.214286 527.917241 
L 349.071429 527.917241 
z
" clip-path="url(#p448e9bb448)" style="fill: #d69ca8; fill-opacity: 0.75; stroke: #fc997c; stroke-linejoin: miter"/>
   </g>
   <g id="patch_57">
    <path d="M 309.214286 578.896552 
L 269.357143 578.896552 
L 269.357143 484.22069 
L 309.214286 484.22069 
z
" clip-path="url(#p448e9bb448)" style="fill: #d69ca8; fill-opacity: 0.75; stroke: #fc997c; stroke-linejoin: miter"/>
   </g>
   <g id="patch_58">
    <path d="M 269.357143 629.875862 
L 229.5 629.875862 
L 229.5 535.2 
L 269.357143 535.2 
z
" clip-path="url(#p448e9bb448)" style="fill: #d69ca8; fill-opacity: 0.75; stroke: #fc997c; stroke-linejoin: miter"/>
   </g>
   <g id="patch_59">
    <path d="M 229.5 629.875862 
L 189.642857 629.875862 
L 189.642857 604.386207 
L 229.5 604.386207 
z
" clip-path="url(#p448e9bb448)" style="fill: #d69ca8; fill-opacity: 0.75; stroke: #fc997c; stroke-linejoin: miter"/>
   </g>
   <g id="patch_60">
    <path d="M 189.642857 629.875862 
L 149.785714 629.875862 
L 149.785714 597.103448 
L 189.642857 597.103448 
z
" clip-path="url(#p448e9bb448)" style="fill: #d69ca8; fill-opacity: 0.75; stroke: #fc997c; stroke-linejoin: miter"/>
   </g>
   <g id="patch_61">
    <path d="M 149.785714 618.951724 
L 109.928571 618.951724 
L 109.928571 578.896552 
L 149.785714 578.896552 
z
" clip-path="url(#p448e9bb448)" style="fill: #d69ca8; fill-opacity: 0.75; stroke: #fc997c; stroke-linejoin: miter"/>
   </g>
   <g id="patch_62">
    <path d="M 109.928571 640.8 
L 70.071429 640.8 
L 70.071429 640.8 
L 109.928571 640.8 
z
" clip-path="url(#p448e9bb448)" style="fill: #d69ca8; fill-opacity: 0.75; stroke: #fc997c; stroke-linejoin: miter"/>
   </g>
   <g id="patch_63">
    <path d="M 667.928571 458.731034 
L 628.071429 458.731034 
L 628.071429 229.324138 
L 667.928571 229.324138 
z
" clip-path="url(#p448e9bb448)" style="fill: #e3b6b7; fill-opacity: 0.75; stroke: #fc997c; stroke-linejoin: miter"/>
   </g>
   <g id="patch_64">
    <path d="M 628.071429 418.675862 
L 588.214286 418.675862 
L 588.214286 145.572414 
L 628.071429 145.572414 
z
" clip-path="url(#p448e9bb448)" style="fill: #e3b6b7; fill-opacity: 0.75; stroke: #fc997c; stroke-linejoin: miter"/>
   </g>
   <g id="patch_65">
    <path d="M 588.214286 564.331034 
L 548.357143 564.331034 
L 548.357143 247.531034 
L 588.214286 247.531034 
z
" clip-path="url(#p448e9bb448)" style="fill: #e3b6b7; fill-opacity: 0.75; stroke: #fc997c; stroke-linejoin: miter"/>
   </g>
   <g id="patch_66">
    <path d="M 548.357143 557.048276 
L 508.5 557.048276 
L 508.5 196.551724 
L 548.357143 196.551724 
z
" clip-path="url(#p448e9bb448)" style="fill: #e3b6b7; fill-opacity: 0.75; stroke: #fc997c; stroke-linejoin: miter"/>
   </g>
   <g id="patch_67">
    <path d="M 508.5 578.896552 
L 468.642857 578.896552 
L 468.642857 273.02069 
L 508.5 273.02069 
z
" clip-path="url(#p448e9bb448)" style="fill: #e3b6b7; fill-opacity: 0.75; stroke: #fc997c; stroke-linejoin: miter"/>
   </g>
   <g id="patch_68">
    <path d="M 468.642857 633.517241 
L 428.785714 633.517241 
L 428.785714 313.075862 
L 468.642857 313.075862 
z
" clip-path="url(#p448e9bb448)" style="fill: #e3b6b7; fill-opacity: 0.75; stroke: #fc997c; stroke-linejoin: miter"/>
   </g>
   <g id="patch_69">
    <path d="M 428.785714 586.17931 
L 388.928571 586.17931 
L 388.928571 200.193103 
L 428.785714 200.193103 
z
" clip-path="url(#p448e9bb448)" style="fill: #e3b6b7; fill-opacity: 0.75; stroke: #fc997c; stroke-linejoin: miter"/>
   </g>
   <g id="patch_70">
    <path d="M 388.928571 549.765517 
L 349.071429 549.765517 
L 349.071429 178.344828 
L 388.928571 178.344828 
z
" clip-path="url(#p448e9bb448)" style="fill: #e3b6b7; fill-opacity: 0.75; stroke: #fc997c; stroke-linejoin: miter"/>
   </g>
   <g id="patch_71">
    <path d="M 349.071429 527.917241 
L 309.214286 527.917241 
L 309.214286 229.324138 
L 349.071429 229.324138 
z
" clip-path="url(#p448e9bb448)" style="fill: #e3b6b7; fill-opacity: 0.75; stroke: #fc997c; stroke-linejoin: miter"/>
   </g>
   <g id="patch_72">
    <path d="M 309.214286 484.22069 
L 269.357143 484.22069 
L 269.357143 269.37931 
L 309.214286 269.37931 
z
" clip-path="url(#p448e9bb448)" style="fill: #e3b6b7; fill-opacity: 0.75; stroke: #fc997c; stroke-linejoin: miter"/>
   </g>
   <g id="patch_73">
    <path d="M 269.357143 535.2 
L 229.5 535.2 
L 229.5 189.268966 
L 269.357143 189.268966 
z
" clip-path="url(#p448e9bb448)" style="fill: #e3b6b7; fill-opacity: 0.75; stroke: #fc997c; stroke-linejoin: miter"/>
   </g>
   <g id="patch_74">
    <path d="M 229.5 604.386207 
L 189.642857 604.386207 
L 189.642857 516.993103 
L 229.5 516.993103 
z
" clip-path="url(#p448e9bb448)" style="fill: #e3b6b7; fill-opacity: 0.75; stroke: #fc997c; stroke-linejoin: miter"/>
   </g>
   <g id="patch_75">
    <path d="M 189.642857 597.103448 
L 149.785714 597.103448 
L 149.785714 458.731034 
L 189.642857 458.731034 
z
" clip-path="url(#p448e9bb448)" style="fill: #e3b6b7; fill-opacity: 0.75; stroke: #fc997c; stroke-linejoin: miter"/>
   </g>
   <g id="patch_76">
    <path d="M 149.785714 578.896552 
L 109.928571 578.896552 
L 109.928571 385.903448 
L 149.785714 385.903448 
z
" clip-path="url(#p448e9bb448)" style="fill: #e3b6b7; fill-opacity: 0.75; stroke: #fc997c; stroke-linejoin: miter"/>
   </g>
   <g id="patch_77">
    <path d="M 109.928571 640.8 
L 70.071429 640.8 
L 70.071429 615.310345 
L 109.928571 615.310345 
z
" clip-path="url(#p448e9bb448)" style="fill: #e3b6b7; fill-opacity: 0.75; stroke: #fc997c; stroke-linejoin: miter"/>
   </g>
   <g id="patch_78">
    <path d="M 667.928571 229.324138 
L 628.071429 229.324138 
L 628.071429 207.475862 
L 667.928571 207.475862 
z
" clip-path="url(#p448e9bb448)" style="fill: #edd1cb; fill-opacity: 0.75; stroke: #fc997c; stroke-linejoin: miter"/>
   </g>
   <g id="patch_79">
    <path d="M 628.071429 145.572414 
L 588.214286 145.572414 
L 588.214286 112.8 
L 628.071429 112.8 
z
" clip-path="url(#p448e9bb448)" style="fill: #edd1cb; fill-opacity: 0.75; stroke: #fc997c; stroke-linejoin: miter"/>
   </g>
   <g id="patch_80">
    <path d="M 588.214286 247.531034 
L 548.357143 247.531034 
L 548.357143 211.117241 
L 588.214286 211.117241 
z
" clip-path="url(#p448e9bb448)" style="fill: #edd1cb; fill-opacity: 0.75; stroke: #fc997c; stroke-linejoin: miter"/>
   </g>
   <g id="patch_81">
    <path d="M 548.357143 196.551724 
L 508.5 196.551724 
L 508.5 167.42069 
L 548.357143 167.42069 
z
" clip-path="url(#p448e9bb448)" style="fill: #edd1cb; fill-opacity: 0.75; stroke: #fc997c; stroke-linejoin: miter"/>
   </g>
   <g id="patch_82">
    <path d="M 508.5 273.02069 
L 468.642857 273.02069 
L 468.642857 225.682759 
L 508.5 225.682759 
z
" clip-path="url(#p448e9bb448)" style="fill: #edd1cb; fill-opacity: 0.75; stroke: #fc997c; stroke-linejoin: miter"/>
   </g>
   <g id="patch_83">
    <path d="M 468.642857 313.075862 
L 428.785714 313.075862 
L 428.785714 283.944828 
L 468.642857 283.944828 
z
" clip-path="url(#p448e9bb448)" style="fill: #edd1cb; fill-opacity: 0.75; stroke: #fc997c; stroke-linejoin: miter"/>
   </g>
   <g id="patch_84">
    <path d="M 428.785714 200.193103 
L 388.928571 200.193103 
L 388.928571 167.42069 
L 428.785714 167.42069 
z
" clip-path="url(#p448e9bb448)" style="fill: #edd1cb; fill-opacity: 0.75; stroke: #fc997c; stroke-linejoin: miter"/>
   </g>
   <g id="patch_85">
    <path d="M 388.928571 178.344828 
L 349.071429 178.344828 
L 349.071429 163.77931 
L 388.928571 163.77931 
z
" clip-path="url(#p448e9bb448)" style="fill: #edd1cb; fill-opacity: 0.75; stroke: #fc997c; stroke-linejoin: miter"/>
   </g>
   <g id="patch_86">
    <path d="M 349.071429 229.324138 
L 309.214286 229.324138 
L 309.214286 211.117241 
L 349.071429 211.117241 
z
" clip-path="url(#p448e9bb448)" style="fill: #edd1cb; fill-opacity: 0.75; stroke: #fc997c; stroke-linejoin: miter"/>
   </g>
   <g id="patch_87">
    <path d="M 309.214286 269.37931 
L 269.357143 269.37931 
L 269.357143 254.813793 
L 309.214286 254.813793 
z
" clip-path="url(#p448e9bb448)" style="fill: #edd1cb; fill-opacity: 0.75; stroke: #fc997c; stroke-linejoin: miter"/>
   </g>
   <g id="patch_88">
    <path d="M 269.357143 189.268966 
L 229.5 189.268966 
L 229.5 181.986207 
L 269.357143 181.986207 
z
" clip-path="url(#p448e9bb448)" style="fill: #edd1cb; fill-opacity: 0.75; stroke: #fc997c; stroke-linejoin: miter"/>
   </g>
   <g id="patch_89">
    <path d="M 229.5 516.993103 
L 189.642857 516.993103 
L 189.642857 447.806897 
L 229.5 447.806897 
z
" clip-path="url(#p448e9bb448)" style="fill: #edd1cb; fill-opacity: 0.75; stroke: #fc997c; stroke-linejoin: miter"/>
   </g>
   <g id="patch_90">
    <path d="M 189.642857 458.731034 
L 149.785714 458.731034 
L 149.785714 418.675862 
L 189.642857 418.675862 
z
" clip-path="url(#p448e9bb448)" style="fill: #edd1cb; fill-opacity: 0.75; stroke: #fc997c; stroke-linejoin: miter"/>
   </g>
   <g id="patch_91">
    <path d="M 149.785714 385.903448 
L 109.928571 385.903448 
L 109.928571 364.055172 
L 149.785714 364.055172 
z
" clip-path="url(#p448e9bb448)" style="fill: #edd1cb; fill-opacity: 0.75; stroke: #fc997c; stroke-linejoin: miter"/>
   </g>
   <g id="patch_92">
    <path d="M 109.928571 615.310345 
L 70.071429 615.310345 
L 70.071429 608.027586 
L 109.928571 608.027586 
z
" clip-path="url(#p448e9bb448)" style="fill: #edd1cb; fill-opacity: 0.75; stroke: #fc997c; stroke-linejoin: miter"/>
   </g>
   <g id="patch_93">
    <path d="M 90 640.8 
L 90 86.4 
" style="fill: none; stroke: #fc997c; stroke-width: 1.25; stroke-linejoin: miter; stroke-linecap: square"/>
   </g>
   <g id="patch_94">
    <path d="M 648 640.8 
L 648 86.4 
" style="fill: none; stroke: #fc997c; stroke-width: 1.25; stroke-linejoin: miter; stroke-linecap: square"/>
   </g>
   <g id="patch_95">
    <path d="M 90 640.8 
L 648 640.8 
" style="fill: none; stroke: #fc997c; stroke-width: 1.25; stroke-linejoin: miter; stroke-linecap: square"/>
   </g>
   <g id="patch_96">
    <path d="M 90 86.4 
L 648 86.4 
" style="fill: none; stroke: #fc997c; stroke-width: 1.25; stroke-linejoin: miter; stroke-linecap: square"/>
   </g>
   <g id="text_26">
    <!-- Running activities by distance range by year -->
    <g style="fill: #fc997c" transform="translate(199.6275 80.4) scale(0.16 -0.16)">
     <defs>
      <path id="Arial-BoldMT-52" d="M 469 0 
L 469 4581 
L 2416 4581 
Q 3150 4581 3483 4457 
Q 3816 4334 4016 4018 
Q 4216 3703 4216 3297 
Q 4216 2781 3912 2445 
Q 3609 2109 3006 2022 
Q 3306 1847 3501 1637 
Q 3697 1428 4028 894 
L 4588 0 
L 3481 0 
L 2813 997 
Q 2456 1531 2325 1670 
Q 2194 1809 2047 1861 
Q 1900 1913 1581 1913 
L 1394 1913 
L 1394 0 
L 469 0 
z
M 1394 2644 
L 2078 2644 
Q 2744 2644 2909 2700 
Q 3075 2756 3169 2893 
Q 3263 3031 3263 3238 
Q 3263 3469 3139 3611 
Q 3016 3753 2791 3791 
Q 2678 3806 2116 3806 
L 1394 3806 
L 1394 2644 
z
" transform="scale(0.015625)"/>
      <path id="Arial-BoldMT-75" d="M 2644 0 
L 2644 497 
Q 2463 231 2167 78 
Q 1872 -75 1544 -75 
Q 1209 -75 943 72 
Q 678 219 559 484 
Q 441 750 441 1219 
L 441 3319 
L 1319 3319 
L 1319 1794 
Q 1319 1094 1367 936 
Q 1416 778 1544 686 
Q 1672 594 1869 594 
Q 2094 594 2272 717 
Q 2450 841 2515 1023 
Q 2581 1206 2581 1919 
L 2581 3319 
L 3459 3319 
L 3459 0 
L 2644 0 
z
" transform="scale(0.015625)"/>
      <path id="Arial-BoldMT-6e" d="M 3478 0 
L 2600 0 
L 2600 1694 
Q 2600 2231 2544 2389 
Q 2488 2547 2361 2634 
Q 2234 2722 2056 2722 
Q 1828 2722 1647 2597 
Q 1466 2472 1398 2265 
Q 1331 2059 1331 1503 
L 1331 0 
L 453 0 
L 453 3319 
L 1269 3319 
L 1269 2831 
Q 1703 3394 2363 3394 
Q 2653 3394 2893 3289 
Q 3134 3184 3257 3021 
Q 3381 2859 3429 2653 
Q 3478 2447 3478 2063 
L 3478 0 
z
" transform="scale(0.015625)"/>
      <path id="Arial-BoldMT-69" d="M 459 3769 
L 459 4581 
L 1338 4581 
L 1338 3769 
L 459 3769 
z
M 459 0 
L 459 3319 
L 1338 3319 
L 1338 0 
L 459 0 
z
" transform="scale(0.015625)"/>
      <path id="Arial-BoldMT-67" d="M 378 -219 
L 1381 -341 
Q 1406 -516 1497 -581 
Q 1622 -675 1891 -675 
Q 2234 -675 2406 -572 
Q 2522 -503 2581 -350 
Q 2622 -241 2622 53 
L 2622 538 
Q 2228 0 1628 0 
Q 959 0 569 566 
Q 263 1013 263 1678 
Q 263 2513 664 2953 
Q 1066 3394 1663 3394 
Q 2278 3394 2678 2853 
L 2678 3319 
L 3500 3319 
L 3500 341 
Q 3500 -247 3403 -537 
Q 3306 -828 3131 -993 
Q 2956 -1159 2664 -1253 
Q 2372 -1347 1925 -1347 
Q 1081 -1347 728 -1058 
Q 375 -769 375 -325 
Q 375 -281 378 -219 
z
M 1163 1728 
Q 1163 1200 1367 954 
Q 1572 709 1872 709 
Q 2194 709 2416 961 
Q 2638 1213 2638 1706 
Q 2638 2222 2425 2472 
Q 2213 2722 1888 2722 
Q 1572 2722 1367 2476 
Q 1163 2231 1163 1728 
z
" transform="scale(0.015625)"/>
      <path id="Arial-BoldMT-20" transform="scale(0.015625)"/>
      <path id="Arial-BoldMT-61" d="M 1116 2306 
L 319 2450 
Q 453 2931 781 3162 
Q 1109 3394 1756 3394 
Q 2344 3394 2631 3255 
Q 2919 3116 3036 2902 
Q 3153 2688 3153 2116 
L 3144 1091 
Q 3144 653 3186 445 
Q 3228 238 3344 0 
L 2475 0 
Q 2441 88 2391 259 
Q 2369 338 2359 363 
Q 2134 144 1878 34 
Q 1622 -75 1331 -75 
Q 819 -75 523 203 
Q 228 481 228 906 
Q 228 1188 362 1408 
Q 497 1628 739 1745 
Q 981 1863 1438 1950 
Q 2053 2066 2291 2166 
L 2291 2253 
Q 2291 2506 2166 2614 
Q 2041 2722 1694 2722 
Q 1459 2722 1328 2630 
Q 1197 2538 1116 2306 
z
M 2291 1594 
Q 2122 1538 1756 1459 
Q 1391 1381 1278 1306 
Q 1106 1184 1106 997 
Q 1106 813 1243 678 
Q 1381 544 1594 544 
Q 1831 544 2047 700 
Q 2206 819 2256 991 
Q 2291 1103 2291 1419 
L 2291 1594 
z
" transform="scale(0.015625)"/>
      <path id="Arial-BoldMT-63" d="M 3353 2338 
L 2488 2181 
Q 2444 2441 2289 2572 
Q 2134 2703 1888 2703 
Q 1559 2703 1364 2476 
Q 1169 2250 1169 1719 
Q 1169 1128 1367 884 
Q 1566 641 1900 641 
Q 2150 641 2309 783 
Q 2469 925 2534 1272 
L 3397 1125 
Q 3263 531 2881 228 
Q 2500 -75 1859 -75 
Q 1131 -75 698 384 
Q 266 844 266 1656 
Q 266 2478 700 2936 
Q 1134 3394 1875 3394 
Q 2481 3394 2839 3133 
Q 3197 2872 3353 2338 
z
" transform="scale(0.015625)"/>
      <path id="Arial-BoldMT-74" d="M 1981 3319 
L 1981 2619 
L 1381 2619 
L 1381 1281 
Q 1381 875 1398 808 
Q 1416 741 1477 697 
Q 1538 653 1625 653 
Q 1747 653 1978 738 
L 2053 56 
Q 1747 -75 1359 -75 
Q 1122 -75 931 4 
Q 741 84 652 211 
Q 563 338 528 553 
Q 500 706 500 1172 
L 500 2619 
L 97 2619 
L 97 3319 
L 500 3319 
L 500 3978 
L 1381 4491 
L 1381 3319 
L 1981 3319 
z
" transform="scale(0.015625)"/>
      <path id="Arial-BoldMT-76" d="M 1372 0 
L 34 3319 
L 956 3319 
L 1581 1625 
L 1763 1059 
Q 1834 1275 1853 1344 
Q 1897 1484 1947 1625 
L 2578 3319 
L 3481 3319 
L 2163 0 
L 1372 0 
z
" transform="scale(0.015625)"/>
      <path id="Arial-BoldMT-65" d="M 2381 1056 
L 3256 909 
Q 3088 428 2723 176 
Q 2359 -75 1813 -75 
Q 947 -75 531 491 
Q 203 944 203 1634 
Q 203 2459 634 2926 
Q 1066 3394 1725 3394 
Q 2466 3394 2894 2905 
Q 3322 2416 3303 1406 
L 1103 1406 
Q 1113 1016 1316 798 
Q 1519 581 1822 581 
Q 2028 581 2168 693 
Q 2309 806 2381 1056 
z
M 2431 1944 
Q 2422 2325 2234 2523 
Q 2047 2722 1778 2722 
Q 1491 2722 1303 2513 
Q 1116 2303 1119 1944 
L 2431 1944 
z
" transform="scale(0.015625)"/>
      <path id="Arial-BoldMT-73" d="M 150 947 
L 1031 1081 
Q 1088 825 1259 692 
Q 1431 559 1741 559 
Q 2081 559 2253 684 
Q 2369 772 2369 919 
Q 2369 1019 2306 1084 
Q 2241 1147 2013 1200 
Q 950 1434 666 1628 
Q 272 1897 272 2375 
Q 272 2806 612 3100 
Q 953 3394 1669 3394 
Q 2350 3394 2681 3172 
Q 3013 2950 3138 2516 
L 2309 2363 
Q 2256 2556 2107 2659 
Q 1959 2763 1684 2763 
Q 1338 2763 1188 2666 
Q 1088 2597 1088 2488 
Q 1088 2394 1175 2328 
Q 1294 2241 1995 2081 
Q 2697 1922 2975 1691 
Q 3250 1456 3250 1038 
Q 3250 581 2869 253 
Q 2488 -75 1741 -75 
Q 1063 -75 667 200 
Q 272 475 150 947 
z
" transform="scale(0.015625)"/>
      <path id="Arial-BoldMT-62" d="M 422 0 
L 422 4581 
L 1300 4581 
L 1300 2931 
Q 1706 3394 2263 3394 
Q 2869 3394 3266 2955 
Q 3663 2516 3663 1694 
Q 3663 844 3258 384 
Q 2853 -75 2275 -75 
Q 1991 -75 1714 67 
Q 1438 209 1238 488 
L 1238 0 
L 422 0 
z
M 1294 1731 
Q 1294 1216 1456 969 
Q 1684 619 2063 619 
Q 2353 619 2558 867 
Q 2763 1116 2763 1650 
Q 2763 2219 2556 2470 
Q 2350 2722 2028 2722 
Q 1713 2722 1503 2476 
Q 1294 2231 1294 1731 
z
" transform="scale(0.015625)"/>
      <path id="Arial-BoldMT-79" d="M 44 3319 
L 978 3319 
L 1772 963 
L 2547 3319 
L 3456 3319 
L 2284 125 
L 2075 -453 
Q 1959 -744 1854 -897 
Q 1750 -1050 1614 -1145 
Q 1478 -1241 1279 -1294 
Q 1081 -1347 831 -1347 
Q 578 -1347 334 -1294 
L 256 -606 
Q 463 -647 628 -647 
Q 934 -647 1081 -467 
Q 1228 -288 1306 -9 
L 44 3319 
z
" transform="scale(0.015625)"/>
      <path id="Arial-BoldMT-64" d="M 3503 0 
L 2688 0 
L 2688 488 
Q 2484 203 2207 64 
Q 1931 -75 1650 -75 
Q 1078 -75 670 386 
Q 263 847 263 1672 
Q 263 2516 659 2955 
Q 1056 3394 1663 3394 
Q 2219 3394 2625 2931 
L 2625 4581 
L 3503 4581 
L 3503 0 
z
M 1159 1731 
Q 1159 1200 1306 963 
Q 1519 619 1900 619 
Q 2203 619 2415 876 
Q 2628 1134 2628 1647 
Q 2628 2219 2422 2470 
Q 2216 2722 1894 2722 
Q 1581 2722 1370 2473 
Q 1159 2225 1159 1731 
z
" transform="scale(0.015625)"/>
      <path id="Arial-BoldMT-72" d="M 1300 0 
L 422 0 
L 422 3319 
L 1238 3319 
L 1238 2847 
Q 1447 3181 1614 3287 
Q 1781 3394 1994 3394 
Q 2294 3394 2572 3228 
L 2300 2463 
Q 2078 2606 1888 2606 
Q 1703 2606 1575 2504 
Q 1447 2403 1373 2137 
Q 1300 1872 1300 1025 
L 1300 0 
z
" transform="scale(0.015625)"/>
     </defs>
     <use xlink:href="#Arial-BoldMT-52"/>
     <use xlink:href="#Arial-BoldMT-75" x="72.216797"/>
     <use xlink:href="#Arial-BoldMT-6e" x="133.300781"/>
     <use xlink:href="#Arial-BoldMT-6e" x="194.384766"/>
     <use xlink:href="#Arial-BoldMT-69" x="255.46875"/>
     <use xlink:href="#Arial-BoldMT-6e" x="283.251953"/>
     <use xlink:href="#Arial-BoldMT-67" x="344.335938"/>
     <use xlink:href="#Arial-BoldMT-20" x="405.419922"/>
     <use xlink:href="#Arial-BoldMT-61" x="433.203125"/>
     <use xlink:href="#Arial-BoldMT-63" x="488.818359"/>
     <use xlink:href="#Arial-BoldMT-74" x="544.433594"/>
     <use xlink:href="#Arial-BoldMT-69" x="577.734375"/>
     <use xlink:href="#Arial-BoldMT-76" x="605.517578"/>
     <use xlink:href="#Arial-BoldMT-69" x="661.132812"/>
     <use xlink:href="#Arial-BoldMT-74" x="688.916016"/>
     <use xlink:href="#Arial-BoldMT-69" x="722.216797"/>
     <use xlink:href="#Arial-BoldMT-65" x="750"/>
     <use xlink:href="#Arial-BoldMT-73" x="805.615234"/>
     <use xlink:href="#Arial-BoldMT-20" x="861.230469"/>
     <use xlink:href="#Arial-BoldMT-62" x="889.013672"/>
     <use xlink:href="#Arial-BoldMT-79" x="950.097656"/>
     <use xlink:href="#Arial-BoldMT-20" x="1005.712891"/>
     <use xlink:href="#Arial-BoldMT-64" x="1033.496094"/>
     <use xlink:href="#Arial-BoldMT-69" x="1094.580078"/>
     <use xlink:href="#Arial-BoldMT-73" x="1122.363281"/>
     <use xlink:href="#Arial-BoldMT-74" x="1177.978516"/>
     <use xlink:href="#Arial-BoldMT-61" x="1211.279297"/>
     <use xlink:href="#Arial-BoldMT-6e" x="1266.894531"/>
     <use xlink:href="#Arial-BoldMT-63" x="1327.978516"/>
     <use xlink:href="#Arial-BoldMT-65" x="1383.59375"/>
     <use xlink:href="#Arial-BoldMT-20" x="1439.208984"/>
     <use xlink:href="#Arial-BoldMT-72" x="1466.992188"/>
     <use xlink:href="#Arial-BoldMT-61" x="1505.908203"/>
     <use xlink:href="#Arial-BoldMT-6e" x="1561.523438"/>
     <use xlink:href="#Arial-BoldMT-67" x="1622.607422"/>
     <use xlink:href="#Arial-BoldMT-65" x="1683.691406"/>
     <use xlink:href="#Arial-BoldMT-20" x="1739.306641"/>
     <use xlink:href="#Arial-BoldMT-62" x="1767.089844"/>
     <use xlink:href="#Arial-BoldMT-79" x="1828.173828"/>
     <use xlink:href="#Arial-BoldMT-20" x="1883.789062"/>
     <use xlink:href="#Arial-BoldMT-79" x="1911.572266"/>
     <use xlink:href="#Arial-BoldMT-65" x="1967.1875"/>
     <use xlink:href="#Arial-BoldMT-61" x="2022.802734"/>
     <use xlink:href="#Arial-BoldMT-72" x="2078.417969"/>
    </g>
   </g>
   <g id="legend_1">
    <g id="patch_97">
     <path d="M 97.7 188.559062 
L 178.749375 188.559062 
Q 180.949375 188.559062 180.949375 186.359062 
L 180.949375 94.1 
Q 180.949375 91.9 178.749375 91.9 
L 97.7 91.9 
Q 95.5 91.9 95.5 94.1 
L 95.5 186.359062 
Q 95.5 188.559062 97.7 188.559062 
z
" style="fill: #2e4c6d; opacity: 0.8; stroke: #cccccc; stroke-linejoin: miter"/>
    </g>
    <g id="patch_98">
     <path d="M 99.9 104.173594 
L 121.9 104.173594 
L 121.9 96.473594 
L 99.9 96.473594 
z
" style="fill: #2d1e3e; fill-opacity: 0.75; stroke: #fc997c; stroke-linejoin: miter"/>
    </g>
    <g id="text_27">
     <!-- 42-50 km -->
     <g style="fill: #fc997c" transform="translate(130.7 104.173594) scale(0.11 -0.11)">
      <defs>
       <path id="ArialMT-2d" d="M 203 1375 
L 203 1941 
L 1931 1941 
L 1931 1375 
L 203 1375 
z
" transform="scale(0.015625)"/>
       <path id="ArialMT-6b" d="M 425 0 
L 425 4581 
L 988 4581 
L 988 1969 
L 2319 3319 
L 3047 3319 
L 1778 2088 
L 3175 0 
L 2481 0 
L 1384 1697 
L 988 1316 
L 988 0 
L 425 0 
z
" transform="scale(0.015625)"/>
      </defs>
      <use xlink:href="#ArialMT-34"/>
      <use xlink:href="#ArialMT-32" x="55.615234"/>
      <use xlink:href="#ArialMT-2d" x="111.230469"/>
      <use xlink:href="#ArialMT-35" x="144.53125"/>
      <use xlink:href="#ArialMT-30" x="200.146484"/>
      <use xlink:href="#ArialMT-20" x="255.761719"/>
      <use xlink:href="#ArialMT-6b" x="283.544922"/>
      <use xlink:href="#ArialMT-6d" x="333.544922"/>
     </g>
    </g>
    <g id="patch_99">
     <path d="M 99.9 119.733438 
L 121.9 119.733438 
L 121.9 112.033438 
L 99.9 112.033438 
z
" style="fill: #a9678f; fill-opacity: 0.75; stroke: #fc997c; stroke-linejoin: miter"/>
    </g>
    <g id="text_28">
     <!-- 21-42 km -->
     <g style="fill: #fc997c" transform="translate(130.7 119.733438) scale(0.11 -0.11)">
      <use xlink:href="#ArialMT-32"/>
      <use xlink:href="#ArialMT-31" x="55.615234"/>
      <use xlink:href="#ArialMT-2d" x="111.230469"/>
      <use xlink:href="#ArialMT-34" x="144.53125"/>
      <use xlink:href="#ArialMT-32" x="200.146484"/>
      <use xlink:href="#ArialMT-20" x="255.761719"/>
      <use xlink:href="#ArialMT-6b" x="283.544922"/>
      <use xlink:href="#ArialMT-6d" x="333.544922"/>
     </g>
    </g>
    <g id="patch_100">
     <path d="M 99.9 135.293281 
L 121.9 135.293281 
L 121.9 127.593281 
L 99.9 127.593281 
z
" style="fill: #c4829c; fill-opacity: 0.75; stroke: #fc997c; stroke-linejoin: miter"/>
    </g>
    <g id="text_29">
     <!-- 15-21 km -->
     <g style="fill: #fc997c" transform="translate(130.7 135.293281) scale(0.11 -0.11)">
      <use xlink:href="#ArialMT-31"/>
      <use xlink:href="#ArialMT-35" x="55.615234"/>
      <use xlink:href="#ArialMT-2d" x="111.230469"/>
      <use xlink:href="#ArialMT-32" x="144.53125"/>
      <use xlink:href="#ArialMT-31" x="200.146484"/>
      <use xlink:href="#ArialMT-20" x="255.761719"/>
      <use xlink:href="#ArialMT-6b" x="283.544922"/>
      <use xlink:href="#ArialMT-6d" x="333.544922"/>
     </g>
    </g>
    <g id="patch_101">
     <path d="M 99.9 150.853125 
L 121.9 150.853125 
L 121.9 143.153125 
L 99.9 143.153125 
z
" style="fill: #d69ca8; fill-opacity: 0.75; stroke: #fc997c; stroke-linejoin: miter"/>
    </g>
    <g id="text_30">
     <!-- 10-15 km -->
     <g style="fill: #fc997c" transform="translate(130.7 150.853125) scale(0.11 -0.11)">
      <use xlink:href="#ArialMT-31"/>
      <use xlink:href="#ArialMT-30" x="55.615234"/>
      <use xlink:href="#ArialMT-2d" x="111.230469"/>
      <use xlink:href="#ArialMT-31" x="144.53125"/>
      <use xlink:href="#ArialMT-35" x="200.146484"/>
      <use xlink:href="#ArialMT-20" x="255.761719"/>
      <use xlink:href="#ArialMT-6b" x="283.544922"/>
      <use xlink:href="#ArialMT-6d" x="333.544922"/>
     </g>
    </g>
    <g id="patch_102">
     <path d="M 99.9 166.412969 
L 121.9 166.412969 
L 121.9 158.712969 
L 99.9 158.712969 
z
" style="fill: #e3b6b7; fill-opacity: 0.75; stroke: #fc997c; stroke-linejoin: miter"/>
    </g>
    <g id="text_31">
     <!-- 5-10 km -->
     <g style="fill: #fc997c" transform="translate(130.7 166.412969) scale(0.11 -0.11)">
      <use xlink:href="#ArialMT-35"/>
      <use xlink:href="#ArialMT-2d" x="55.615234"/>
      <use xlink:href="#ArialMT-31" x="88.916016"/>
      <use xlink:href="#ArialMT-30" x="144.53125"/>
      <use xlink:href="#ArialMT-20" x="200.146484"/>
      <use xlink:href="#ArialMT-6b" x="227.929688"/>
      <use xlink:href="#ArialMT-6d" x="277.929688"/>
     </g>
    </g>
    <g id="patch_103">
     <path d="M 99.9 181.972813 
L 121.9 181.972813 
L 121.9 174.272813 
L 99.9 174.272813 
z
" style="fill: #edd1cb; fill-opacity: 0.75; stroke: #fc997c; stroke-linejoin: miter"/>
    </g>
    <g id="text_32">
     <!-- 0-5 km -->
     <g style="fill: #fc997c" transform="translate(130.7 181.972813) scale(0.11 -0.11)">
      <use xlink:href="#ArialMT-30"/>
      <use xlink:href="#ArialMT-2d" x="55.615234"/>
      <use xlink:href="#ArialMT-35" x="88.916016"/>
      <use xlink:href="#ArialMT-20" x="144.53125"/>
      <use xlink:href="#ArialMT-6b" x="172.314453"/>
      <use xlink:href="#ArialMT-6d" x="222.314453"/>
     </g>
    </g>
   </g>
  </g>
 </g>
 <defs>
  <clipPath id="p448e9bb448">
   <rect x="90" y="86.4" width="558" height="554.4"/>
  </clipPath>
 </defs>
</svg>
