<?xml version="1.0" encoding="UTF-8" standalone="no"?>
<svg
   version="1.1"
   viewBox="0 0 382 382"
   id="svg115"
   sodipodi:docname="dont-forget-youre-here-forever-thumb.svg"
   inkscape:version="1.3.2 (091e20e, 2023-11-25)"
   width="382"
   height="382"
   xmlns:inkscape="http://www.inkscape.org/namespaces/inkscape"
   xmlns:sodipodi="http://sodipodi.sourceforge.net/DTD/sodipodi-0.dtd"
   xmlns="http://www.w3.org/2000/svg"
   xmlns:svg="http://www.w3.org/2000/svg">
  <defs
     id="defs115" />
  <sodipodi:namedview
     id="namedview115"
     pagecolor="#ffffff"
     bordercolor="#000000"
     borderopacity="0.25"
     inkscape:showpageshadow="2"
     inkscape:pageopacity="0.0"
     inkscape:pagecheckerboard="0"
     inkscape:deskcolor="#d1d1d1"
     inkscape:window-width="960"
     inkscape:window-height="939"
     inkscape:window-x="0"
     inkscape:window-y="25"
     inkscape:window-maximized="0"
     inkscape:current-layer="svg115"
     showgrid="true"
     inkscape:zoom="1.7522574"
     inkscape:cx="137.25152"
     inkscape:cy="153.51625">
    <inkscape:grid
       id="grid4"
       units="px"
       originx="1.8157064"
       originy="9.0545977"
       spacingx="1"
       spacingy="1"
       empcolor="#0099e5"
       empopacity="0.30196078"
       color="#0099e5"
       opacity="0.14901961"
       empspacing="5"
       dotted="false"
       gridanglex="30"
       gridanglez="30"
       visible="true" />
  </sodipodi:namedview>
  <g
     stroke-width="2"
     fill="none"
     stroke-linecap="butt"
     id="g66"
     style="display:inline"
     transform="translate(2.2929657,98.173454)" />
  <rect
     width="100%"
     height="100%"
     fill="#6570AB"
     inkscape:label="background"
     sodipodi:nodetypes="ccccc"
     style="" />
  <path
     fill="#b88455"
     d="M 380.55761,301.50433 2.4940627,302.07611 1.9482576,90.926909 380.93151,92.064885 Z M 218.48244,89.118857 c -219.00372778,7.168284 -219.00372778,7.168284 0,0 z"
     id="path70"
     inkscape:label="frame"
     sodipodi:nodetypes="ccccccc"
     style="stroke-width:1.00952" />
  <path
     id="path71"
     inkscape:label="frame-border-1"
     d="m 382.73791,89.230452 -2.14176,0.15788 L 380.46692,300.7264 2.885308,300.5379 2.3500565,91.068532 l 378.5454235,1.26029 -0.0274,-3.01444 -380.2272878,-0.0964 -0.042273,213.574308 382.1827008,0.0949 z"
     sodipodi:nodetypes="ccccccccccc"
     style="stroke-width:1.01025" />
  <path
     id="path111"
     style="display:inline;stroke-width:0.985875"
     inkscape:label="plauque-border-2"
     d="m 17.901286,281.06607 345.047104,2.13536 c -0.22863,0.21408 -345.047104,-2.13536 -345.047104,-2.13536 z"
     sodipodi:nodetypes="ccc" />
  <path
     fill="#351d0e"
     d="m 10.32112,288.3001 c 0,0 0.930453,-112.62754 0.737711,-112.69234 l -0.192034,-66.65287 355.137663,-0.14417 0.093,179.87047 C 247.51062,288.05763 10.2738,288.51194 10.32112,288.3001 Z"
     id="path72"
     inkscape:label="plaque-border-1"
     style="display:inline"
     sodipodi:nodetypes="cccccc" />
  <path
     fill="#c6b9ce"
     d="m 360.47736,283.37007 -343.852341,-0.0904 c -0.193578,0.43152 0.188766,-169.11022 0.188766,-169.11022 l 343.472365,0.88888 z"
     id="path73"
     inkscape:label="plaque-background"
     sodipodi:nodetypes="ccccc"
     style="stroke-width:1.00821" />
  <path
     fill="#040116"
     d="m 29.82726,136.88869 a 2.79,2.79 0 0 1 2.77,-2.81 l 6.54,-0.04 a 11.05,10.69 89.6 0 1 10.77,10.97 l 0.02,3.4 a 11.05,10.69 89.6 0 1 -10.61,11.12 l -6.54,0.05 a 2.79,2.79 0 0 1 -2.81,-2.77 z m 6.05,4.12 0.13,10.68 a 0.68,0.68 0 0 0 0.68,0.67 h 0.45 a 5.24,6.01 89.3 0 0 5.95,-5.31 l -0.02,-1.56 a 5.24,6.01 89.3 0 0 -6.07,-5.17 l -0.45,0.01 a 0.68,0.68 0 0 0 -0.67,0.68 z"
     id="path74"
     inkscape:label="d" />
  <path
     fill="#c6b9ce"
     d="m 35.87726,141.00869 a 0.68,0.68 0 0 1 0.67,-0.68 l 0.45,-0.01 a 5.24,6.01 89.3 0 1 6.07,5.17 l 0.02,1.56 a 5.24,6.01 89.3 0 1 -5.95,5.31 h -0.45 a 0.68,0.68 0 0 1 -0.68,-0.67 z"
     id="path86"
     inkscape:label="d-elipse" />
  <path
     fill="#040116"
     d="m 65.65726,159.86869 c -9.55,-3.13 -8.28,-21.56 0.76,-25.14 q 4.08,-1.62 7.78,0.1 c 6.33,2.94 8.44,11.54 6.65,17.97 -1.45,5.22 -10.29,8.67 -15.19,7.07 z m 6.6442,-5.7476 a 7.21,4.98 76.9 0 0 3.2162,-8.1511 7.21,4.98 76.9 0 0 -6.4846,-5.8937 7.21,4.98 76.9 0 0 -3.2162,8.1511 7.21,4.98 76.9 0 0 6.4846,5.8937 z"
     id="path75"
     inkscape:label="o" />
  <ellipse
     fill="#c6b9ce"
     cx="159.28741"
     cy="-35.488106"
     transform="rotate(76.9)"
     rx="7.21"
     ry="4.98"
     id="ellipse85"
     inkscape:label="0-elipse" />
  <path
     fill="#040116"
     d="m 97.60726,151.27869 -0.11,8.3 q -0.01,0.61 -0.59,0.38 -2.62,-1.05 -5.38,-0.24 a 0.43,0.43 0 0 1 -0.55,-0.4 q -0.17,-11.57 1.22,-23.06 0.06,-0.52 0.57,-0.62 c 3.67,-0.74 6.219996,0.24 7.93,3.76 q 2.07,4.3 4.24,8.67 a 0.44,0.44 0 0 0 0.83,-0.2 c -0.04,-2.92 -1.51,-11.13 0.46,-13.23 a 0.95,0.96 29.3 0 1 0.93,-0.27 l 4.25,1.1 q 0.62,0.16 0.61,0.8 -0.12,10.08 -0.3,20.14 -0.02,0.69 -0.59,3.1 -0.12,0.48 -0.59,0.63 -3.74,1.25 -6.77,-0.42 c -2.73,-1.51 -3.65,-5.97 -4.520004,-8.69 q -1.569996,-4.86 -1.639996,0.25 z"
     id="path76"
     inkscape:label="n" />
  <path
     fill="#08030f"
     d="m 119.65726,142.58869 -1.65,-1.43 a 0.69,0.71 24.2 0 1 -0.23,-0.64 l 0.57,-4.06 q 0.09,-0.62 0.72,-0.6 l 3.47,0.13 a 0.8,0.81 86 0 1 0.76,0.65 c 0.53,2.56 -0.12,8.39 -3.72,8.78 a 0.51,0.51 0 0 1 -0.49,-0.79 l 0.71,-1.1 a 0.72,0.72 0 0 0 -0.14,-0.94 z"
     id="path77"
     inkscape:label="apostrophe1" />
  <path
     fill="#040116"
     d="m 143.01726,142.89869 -0.32,15.79 q -0.01,0.52 -0.51,0.69 -2.68,0.87 -5.33,-0.09 -0.56,-0.21 -0.54,-0.8 l 0.48,-15.27 a 0.76,0.75 6.6 0 0 -0.62,-0.77 l -5.19,-0.93 a 0.83,0.83 0 0 1 -0.67,-0.89 l 0.41,-4.4 a 0.43,0.43 0 0 1 0.52,-0.39 q 9.16,1.75 18.43,0.5 a 0.56,0.56 0 0 1 0.6,0.73 l -1.43,4.21 a 0.83,0.85 7.2 0 1 -0.71,0.56 l -4.54,0.44 a 0.63,0.65 87.4 0 0 -0.58,0.62 z"
     id="path78"
     inkscape:label="t" />
  <path
     fill="#040116"
     d="m 179.43726,152.22577 q 0.61,3.98 -0.8,7.82 -0.17,0.46 -0.66,0.42 l -5.35,-0.47 a 0.59,0.59 0 0 1 -0.54,-0.61 l 0.86,-22.59 a 0.74,0.73 86.6 0 1 0.6,-0.69 c 3.33,-0.57 11.2,-1.45 15.15,0.24 a 0.87,0.86 11 0 1 0.52,0.76 l 0.18,3.52 a 0.79,0.79 0 0 1 -0.51,0.77 c -2.85,1.11 -6.35,-0.12 -9.33,0.72 a 0.99,0.99 0 0 0 0.18,1.94 l 8.43,0.73 a 0.65,0.65 0 0 1 0.59,0.71 l -0.35,3.72 q -0.14,1.44 -1.58,1.59 l -6.85,0.72 a 0.61,0.61 0 0 0 -0.54,0.7 z"
     id="path79"
     inkscape:label="f" />
  <path
     fill="#040116"
     d="m 207.63636,160.7017 a 11.85,12.89 7 0 1 -10.1908,-14.2381 11.85,12.89 7 0 1 13.3326,-11.3497 11.85,12.89 7 0 1 10.1908,14.2381 11.85,12.89 7 0 1 -13.3326,11.3497 z m 0.378,-6.1297 a 4.49,6.7 7.4 0 0 5.3155,-6.0659 4.49,6.7 7.4 0 0 -3.5897,-7.2225 4.49,6.7 7.4 0 0 -5.3155,6.0659 4.49,6.7 7.4 0 0 3.5897,7.2225 z"
     id="path80"
     inkscape:label="o-2" />
  <ellipse
     fill="#c6b9ce"
     cx="121.17257"
     cy="-226.36917"
     transform="rotate(97.4)"
     rx="6.6999998"
     ry="4.4899998"
     id="ellipse86"
     inkscape:label="o-elipse-2" />
  <path
     fill="#040116"
     d="m 236.55027,152.38577 -0.37,7.07 c -0.0133,0.32 -0.18,0.51333 -0.5,0.58 -1.79333,0.37333 -3.52667,0.19 -5.2,-0.55 -0.34,-0.15333 -0.50667,-0.41667 -0.5,-0.79 0.14667,-5.38 0.34333,-10.73 0.59,-16.05 0,-0.06 -0.11667,-0.94333 -0.35,-2.65 -0.14,-1 0.22,-1.84667 1.08,-2.54 2.87,-2.33 13.67,-1.05 16.94,0.87 4.08,2.4 2.44,7.68 -0.56,10.15 -0.28667,0.23333 -0.33667,0.50667 -0.15,0.82 2.29,3.96 1.96,7.77 2.33,12.18 0.04,0.52 0.12262,-0.0699 -0.35738,-0.25655 -0.63334,-0.24 -1.36929,0.0699 -1.60262,-0.58345 -0.10347,-0.27233 -0.35896,-0.45707 -0.65,-0.47 l -4.56,-0.23 c -0.31991,-0.0173 -0.54824,-0.31697 -0.48,-0.63 0.78,-3.68 -0.11,-8.37 -5.09,-7.55 -0.36,0.06 -0.55,0.27 -0.57,0.63 z m 6.16,-9.03 c -1.49333,-1.14667 -3.19333,-1.63333 -5.1,-1.46 -2.24829,0.30649 -2.57115,3.5904 -0.35,3.56 1.82,-0.10667 3.53333,-0.34 5.14,-0.7 0.65764,-0.14396 0.84539,-0.99187 0.31,-1.4 z"
     id="path82"
     inkscape:label="r"
     sodipodi:nodetypes="cccccccccccccccccccccccc" />
  <path
     fill="#c6b9ce"
     d="m 242.81726,144.31869 a 0.79,0.79 0 0 1 -0.31,1.4 q -2.41,0.54 -5.14,0.7 a 1.63,1.94 45.6 0 1 0.35,-3.56 q 2.86,-0.26 5.1,1.46 z"
     id="path87"
     inkscape:label="r-elipse" />
  <path
     fill="#040116"
     d="m 273.56726,153.10683 q 0.81,-1.33 -0.7,-0.97 -3.55,0.85 -4.62,-2.29 a 2.02,2.03 79.3 0 1 1.83,-2.68 q 5.15,-0.22 10.24,0.92 a 0.93,0.93 0 0 1 0.72,1.02 l -1.36,11.18 q -0.05,0.39 -0.39,0.57 -3,1.57 -4.45,-1.14 a 0.62,0.62 0 0 0 -0.82,-0.27 c -3.88,1.89 -12.26,2.32 -14.11,-2.82 -2.13,-5.94 -2.26,-16.58 4.23,-20.01 5.09,-2.69 13.14,-2.28 15.11,4.25 0.74,2.47 -0.49,4.63 -3.16,4.47 -2.65,-0.17 -4.12,-3.1 -6.76,-3.08 -6.14,0.05 -4.91,11.18 0.06,12.59 q 2.66,0.76 4.18,-1.74 z"
     id="path81"
     inkscape:label="g" />
  <path
     fill="#040116"
     d="m 309.65929,150.02479 0.27,0.9 a 0.68,0.67 69.7 0 1 -0.37,0.81 q -4.3,1.9 -8.92,0.98 c -0.78,-0.16 -1.68,0.24 -1.97,0.94 a 0.77,0.77 0 0 0 0.72,1.07 c 3.48,-0.03 9.09,-0.42 12.05,1.79 a 0.82,0.83 19.4 0 1 0.33,0.7 l -0.15,2.93 q -0.03,0.42 -0.43,0.55 -2.3,0.68 -3.15,0.6 -8.11,-0.85 -16.01,-0.49 a 0.6,0.6 0 0 1 -0.63,-0.57 q -0.56,-11.2 0.47,-22.37 a 0.55,0.55 0 0 1 0.55,-0.51 q 9.38,0.02 18.6,1.64 0.43,0.07 0.55,0.49 0.94,3.26 -0.99,4.29 c -1.96,1.06 -8.59,0.43 -11.2,0.73 a 1.1303982,1.1303982 0 0 0 0.06,2.26 l 9.81,0.6 q 0.54,0.04 0.48,0.58 l -0.14,1.32 q -0.04,0.39 0.07,0.76 z"
     id="path84"
     inkscape:label="e" />
  <path
     fill="#040116"
     d="m 323.66743,143.42187 -4.4,-0.73 a 1.84,1.83 1.3 0 1 -1.54,-1.6 q -0.38,-3.23 1.85,-4.67 1.39,-0.89 4.09,-0.36 5.98,1.17 12.68,1.19 a 2.34,2.34 0 0 1 2.34,2.39 l -0.06,3.02 a 0.78,0.78 0 0 1 -0.58,0.74 l -5.01,1.35 q -0.53,0.14 -0.78,0.63 c -1.97,3.79 -2.29,9.3 -2.73,13.52 -0.09,0.88 0.1,1.24 0.55,1.95 a 0.5,0.49 61.1 0 1 -0.2,0.71 q -3.06,1.55 -5.97,-0.06 a 0.81,0.81 0 0 1 -0.43,-0.75 l 0.74,-16.65 q 0.02,-0.58 -0.55,-0.68 z"
     id="path83"
     inkscape:label="t-2" />
  <path
     fill="#040116"
     d="m 343.50726,137.55187 5.03,-0.39 a 1.24,1.24 0 0 1 1.33,1.33 l -0.33,4.37 a 1.24,1.24 0 0 1 -1.17,1.14 l -5.41,0.27 a 1.24,1.24 0 0 1 -1.29,-1.44 l 0.71,-4.24 a 1.24,1.24 0 0 1 1.13,-1.04 z"
     id="path85"
     inkscape:label="colon" />
  <path
     stroke="#675e6f"
     vector-effect="non-scaling-stroke"
     d="m 127.86566,259.1133 a 4.53,6.64 3.9 0 0 4.9711,-6.3165 4.53,6.64 3.9 0 0 -4.0679,-6.9327 4.53,6.64 3.9 0 0 -4.9711,6.3165 4.53,6.64 3.9 0 0 4.0679,6.9327"
     id="path63"
     inkscape:label="o-fill"
     style="display:inline" />
  <path
     fill="#08030f"
     d="m 347.60929,157.92196 0.5,1.96 a 0.8,0.8 0 0 1 -0.4,0.9 q -2.26,1.18 -4.77,0.74 a 0.66,0.65 3.4 0 1 -0.54,-0.6 l -0.37,-6.44 a 0.57,0.57 0 0 1 0.6,-0.6 l 5.66,0.41 a 0.51,0.5 16.1 0 1 0.41,0.74 l -0.97,1.89 q -0.25,0.48 -0.12,1 z"
     id="path88"
     inkscape:label="colon2" />
  <path
     fill="#040116"
     d="m 57.09726,195.7687 a 0.44,0.44 0 0 0 0.83,0.06 c 1.08,-2.64 2.07,-6.47001 4.77,-7.74001 q 2.88,-1.34 6.19,-0.15 a 0.45,0.46 26.2 0 1 0.22,0.67 q -4.13,6.62001 -7.69,13.59001 -2.12,4.13 -1.25,10 0.08,0.53 -0.43,0.69 -3.08,1.01 -6.22,0.19 -0.56,-0.15 -0.55,-0.73 c 0.07,-3.98 0.63,-8.19 -1.16,-11.87 q -2.84,-5.83 -5.68,-10.95001 a 1.55,1.56 79.4 0 1 1.57,-2.29 l 5.68,0.77 a 2.87,2.88 87.4 0 1 2.41,2.19 z"
     id="path89"
     inkscape:label="y" />
  <path
     fill="#040116"
     d="m 94.49726,209.0387 c -1.83,3.29 -7.6,5.58 -11.2,4.85 -4.4,-0.9 -7.67,-4.87 -8.51,-9.23 -1.86,-9.67 0.87,-17.34001 12.42,-17.04001 11.26,0.3 11.13,14.54001 7.29,21.42001 z m -7.5184,-0.9475 a 7.31,4.47 87.4 0 0 4.1338,-7.5053 7.31,4.47 87.4 0 0 -4.797,-7.0997 7.31,4.47 87.4 0 0 -4.1338,7.5053 7.31,4.47 87.4 0 0 4.797,7.0997 z"
     id="path90"
     inkscape:label="o-3" />
  <ellipse
     fill="#c6b9ce"
     cx="204.51257"
     cy="-77.449692"
     transform="rotate(87.4)"
     rx="7.3099999"
     ry="4.4699998"
     id="ellipse98"
     inkscape:label="o-fill" />
  <path
     fill="#08030f"
     d="m 121.03726,205.7487 c 0,0 -0.47399,-7.38511 -0.42049,-7.41795 l 0.23699,-8.47352 c 0.004,-0.69132 0.6437,-0.75464 1.3335,-0.70854 l 5.14,0.36 c 0.44667,0.0333 0.69,0.27334 0.73,0.72 0.48,5.82001 0.68,17.21001 -3.82,21.49001 -5.58,5.31 -16.22,2.13 -17.2,-6.19 -0.36,-3.10667 -0.76496,-7.61 -0.14496,-13.51 0.11,-1.04001 0.10496,-2.39001 0.10496,-2.39001 0,0 0.0233,-0.71 0.51,-0.73 l 5.66,-0.25 c 0.35179,-0.0173 0.65333,0.2488 0.68,0.6 0.35,4.17001 -0.29553,12.67268 -0.46553,14.54333 3.52133,2.99375 4.11385,3.36548 7.65553,1.95668 z"
     id="path91"
     inkscape:label="u"
     sodipodi:nodetypes="ccccccccccccccc" />
  <path
     fill="#08030f"
     d="m 154.84726,204.8087 -3.47,0.09 c -0.38234,0.005 -0.6941,0.30796 -0.71,0.69 -0.1,3.04 0.98,8.59 -3.44,9.09 -1.70667,0.18667 -2.61667,-0.45 -2.73,-1.91 -0.55333,-7.44667 -0.56,-14.88667 -0.02,-22.32001 0.0267,-0.38 0.22667,-0.62 0.6,-0.72 4.5,-1.18 12.01,-1.43 16.34,1.47 3.35,2.24001 2.74,6.30001 0.66,9.16001 -0.2,0.28 -0.27,0.58667 -0.21,0.92 0.77333,4.15333 0.82,8.33667 0.14,12.55 -0.06,0.36667 -0.27333,0.56 -0.64,0.58 l -4.09,0.24 c -1.12,0.0667 -1.68,-0.46 -1.68,-1.58 l -0.03,-7.55 c 0,-0.48 -0.24,-0.71667 -0.72,-0.71 z m 1.40565,-9.54786 c -0.27405,0.54672 -7.22629,1.57045 -4.98565,-0.64214 -0.44699,0.0368 -0.77637,0.43389 -0.73,0.88 l 0.32,3.38 c 0.0427,0.48713 1,0.57 1,0.57 l 4.19783,0.16836 c 0,0 -1.23601,-5.03332 -0.18018,-4.84793 z"
     id="path92"
     inkscape:label="r-2"
     sodipodi:nodetypes="cccccccccccccccccccccccc" />
  <path
     fill="#c6b9ce"
     d="m 156.17726,196.1687 0.18044,3.29702 -4.50044,-0.017 c -0.89486,0.17361 -0.95726,-0.0829 -1,-0.57 l -0.32,-3.38 c 0,0 -0.36005,-1.37274 1.25958,-1.18262 1.8645,-0.31131 4.56032,-0.13509 4.38042,1.85262 z"
     id="path99"
     inkscape:label="r-fill"
     sodipodi:nodetypes="ccccccc" />
  <path
     fill="#040116"
     d="m 178.32726,206.2287 10.56351,0.82 0.55476,0.11474 0.0917,5.84526 -6.49,-0.04 c 0,0 -6.98,0.0133 -10.46,-0.02 -0.52,-0.007 -0.77,-0.26667 -0.75,-0.78 l 0.74,-21.56001 c 0.0169,-0.56805 0.44939,-1.03478 1.01,-1.09 5.26667,-0.54666 10.52333,-0.54666 15.77,0 0.3755,0.0413 0.65744,0.36231 0.65,0.74 l -0.09,5.35001 c 0,0.34 -0.022,0.0249 -0.52,0.53 l -10.64041,0.33607 0.0404,0.83393 c 0,0 -0.57028,1.23673 -0.10958,1.26044 l 10.05571,0.14738 c -0.11857,1.57377 -0.16434,3.15 -0.21048,4.72697 l -10.12738,3.7e-4 z"
     id="path93"
     inkscape:label="e-2"
     sodipodi:nodetypes="cccccccccccccccccccc" />
  <path
     fill="#040116"
     d="m 233.63425,202.53082 -0.25,10.24 a 0.59,0.6 3.2 0 1 -0.64,0.58 l -6.09,-0.46 a 0.78,0.77 4.4 0 1 -0.72,-0.83 l 1.8,-22.34001 a 1,1 0 0 1 0.34,-0.68 q 2.52,-2.2 5.59,-0.89 0.46,0.2 0.43,0.7 l -0.37,7.47 q -0.04,0.70001 0.66,0.65001 l 5.5,-0.38001 q 0.64,-0.04 0.65,-0.69 0.06,-2.86 0.24,-5.62 c 0.16,-2.64 3.97,-2.08 5.52,-1.42 q 0.44,0.18 0.42,0.66 l -0.91,23.44001 q -0.03,0.62 -0.65,0.68 l -4.76,0.44 q -0.93,0.09 -0.91,-0.85 l 0.24,-11.05 q 0.01,-0.51 -0.49,-0.49 l -4.91,0.15 a 0.71,0.71 0 0 0 -0.69,0.69 z"
     id="path94"
     inkscape:label="h" />
  <path
     fill="#040116"
     d="m 262.51726,196.98772 q 0.2,1.07001 1.49,1.00001 4.85,-0.26001 8.7,0.37 a 0.62,0.61 7.6 0 1 0.51,0.66 l -0.32,3.93 q -0.04,0.61 -0.66,0.62 l -7.5,0.16 a 1.64,1.66 10 0 0 -1.51,1.07 q -0.45,1.2 0.56,1.71 0.49,0.24 1.41,0.18 4.19,-0.28 8.37,0.13 a 0.63,0.63 0 0 1 0.56,0.59 l 0.34,5.34 q 0.03,0.56 -0.52,0.52 l -16.81,-1.16 q -0.5,-0.03 -0.55,-0.53 -0.97,-10.12 0.25,-20.22001 a 0.87,0.87 0 0 1 0.6,-0.72 q 7.96,-2.6 16,-0.17 0.52,0.16 0.55,0.7 l 0.14,3.13 a 1.55,1.55 0 0 1 -1.49,1.63 l -9.55,0.35 a 0.61,0.61 0 0 0 -0.57,0.71 z"
     id="path95"
     inkscape:label="e" />
  <path
     fill="#08030f"
     d="m 135.42726,195.7387 -3.01,-0.65 q -0.5,-0.11 -0.48,-0.62 l 0.2,-4.04001 q 0.04,-0.67 0.7,-0.65 l 3.76,0.11 q 0.52,0.02 0.68,0.51 1.83,5.62001 -1.26,10.42001 c -0.58,0.9 -1.77,1.46 -2.68,0.87 a 0.51,0.51 0 0 1 -0.04,-0.82 q 2.07,-1.65 2.69,-4.24 a 0.74,0.73 13 0 0 -0.56,-0.89 z"
     id="path96"
     inkscape:label="apostrophe2" />
  <path
     fill="#040116"
     d="m 291.21726,206.00976 0.57,6.02 q 0.04,0.43 -0.36,0.58 -2.76,1.1 -5.71,0.5 a 1.41,1.41 0 0 1 -1.13,-1.44 l 0.75,-19.93 q 0.02,-0.55001 0.49,-0.85001 1.55,-0.96 3.9,-0.86 c 4.34,0.17 11.97,-0.19 13.21,2.92001 q 1.81,4.53 -1.52,7.97 -0.44,0.45 0.01,0.91 l 1.73,1.78 a 0.68,0.71 19.5 0 1 0.2,0.44 l 0.51,8.48 q 0.04,0.67 -0.62,0.79 -3.2,0.61 -6.09,-0.82 -0.53,-0.26 -0.4,-0.84 c 0.8,-3.71 0.22,-8 -5.02,-6.42 q -0.57,0.18 -0.52,0.77 z m 0.39,-9.19001 0.09,2.24001 a 0.74,0.74 0 0 0 0.76,0.71 l 0.1,-0.01 a 1.77,4.72 87.8 0 0 4.65,-1.95 l -0.01,-0.18 a 1.77,4.72 87.8 0 0 -4.78,-1.58001 h -0.1 a 0.74,0.74 0 0 0 -0.71,0.77 z"
     id="path97"
     inkscape:label="r-3" />
  <path
     fill="#040116"
     d="m 321.76726,204.84277 -0.16,0.67 a 1.47,1.47 0 0 0 1.41,1.81 l 8.61,0.14 a 0.63,0.63 0 0 1 0.59,0.81 q -0.7,2.34 0.63,4.32 0.53,0.77 -0.41,0.73 l -17.33,-0.71 q -0.7,-0.03 -0.67,-0.73 l 0.91,-20.04001 a 1.72,1.71 88.9 0 1 1.56,-1.63 q 7.64,-0.69 15.22,0.42 0.6,0.09 0.57,0.7 -0.04,0.92 -0.05,2.6 -0.02,2.37 -2.17,2.31 -3.49,-0.1 -6.99,-0.04 -1.39,0.02 -2.21,0.45 a 0.85,0.85 0 0 0 0.39,1.60001 l 8.21,0.15 a 0.89,0.9 0.6 0 1 0.88,0.91 l -0.03,2.58 q -0.02,1.48 -1.49,1.62 l -6.71,0.66 a 0.86,0.87 3.7 0 0 -0.76,0.67 z"
     id="path98"
     inkscape:label="e3" />
  <path
     fill="#c6b9ce"
     d="m 291.60726,197.5687 a 0.74,0.74 0 0 1 0.71,-0.77 h 0.1 a 1.77,4.72 87.8 0 1 4.78,1.58 l 0.01,0.18 a 1.77,4.72 87.8 0 1 -4.65,1.95 l -0.1,0.01 a 0.74,0.74 0 0 1 -0.76,-0.71 z"
     id="path100"
     inkscape:label="r-fill" />
  <path
     fill="#040116"
     d="m 99.594008,245.97956 c 0.19042,0.24899 0.35446,2.76003 0.35446,2.76003 l 8.109682,0.21461 c 0,0 0.61118,5.81248 -0.49869,5.75015 l -7.612202,0.12435 c 0,0 -0.853022,0.13214 -1.649998,10.08 0,0 -0.236667,0.0348 -0.343037,0.64869 -1.86,0.90667 -3.91363,0.96798 -5.706963,-0.11869 -0.370969,-0.22341 -0.595574,-0.62313 -0.59,-1.05 l 0.24,-22.43 c 0.0067,-0.36 0.186667,-0.58 0.54,-0.66 6.317383,-1.45786 19.06249,-3.64386 17.23,2.98 -0.059,0.20296 -0.0625,0.41715 -0.01,0.62 0.44667,1.75333 -0.65393,1.58084 -1.18346,1.75215 0.20877,-0.49128 -8.879792,-0.67129 -8.879792,-0.67129 z"
     id="path101"
     inkscape:label="f"
     sodipodi:nodetypes="ccccccccccccccc" />
  <path
     fill="#08030f"
     d="m 139.30726,256.8387 c -1.61,3.69 -5.97,7.91 -9.94,8.66 -9.52,1.79 -13.17,-10.6 -10.95,-17.47 2.17,-6.76 10.9,-9.86 16.66,-5.63 4.19,3.09 6.46,9.34 4.23,14.44 z m -11.4416,2.2746 a 4.53,6.64 3.9 0 0 4.9711,-6.3165 4.53,6.64 3.9 0 0 -4.0679,-6.9327 4.53,6.64 3.9 0 0 -4.9711,6.3165 4.53,6.64 3.9 0 0 4.0679,6.9327 z"
     id="path102"
     inkscape:label="o4" />
  <ellipse
     fill="#c6b9ce"
     cx="243.17647"
     cy="-145.19321"
     transform="rotate(93.9)"
     rx="6.6399999"
     ry="4.5300002"
     id="ellipse107"
     inkscape:label="o-4-fill" />
  <ellipse
     fill="#1e0c0b"
     cx="76.60627"
     cy="-97.658287"
     transform="rotate(130.1)"
     rx="2.75"
     ry="2.3599999"
     id="ellipse73"
     inkscape:label="nail-top-left" />
  <path
     fill="#08030f"
     d="m 155.31726,255.9987 q 1.13,4.48 -0.22,8.92 a 0.71,0.73 10.9 0 1 -0.75,0.52 l -4.01,-0.34 q -0.49,-0.04 -0.48,-0.53 c 0.05,-3.57 1.29,-10.74 -0.13,-13.79 q -0.23,-0.49 0.02,-0.97 1.8,-3.52 1.1,-7.51 a 0.55,0.55 0 0 1 0.48,-0.64 q 6.1,-0.67 10.89,0.07 c 5.67,0.87 7.72,6.38 3.93,10.74 q -0.33,0.38 -0.11,0.84 2.65,5.38 2.55,11.52 a 0.68,0.69 80.7 0 1 -0.46,0.63 q -3.44,1.17 -6.91,0.02 -0.52,-0.17 -0.53,-0.73 c -0.1,-4.6 3.02,-9.66 -4.73,-9.57 a 0.66,0.67 82.8 0 0 -0.64,0.82 z m 0.6,-8.45 0.07,1.8 a 0.68,0.68 0 0 0 0.7,0.65 l 0.93,-0.03 a 1.41,3.55 87.7 0 0 3.49,-1.55 l -0.01,-0.34 a 1.41,3.55 87.7 0 0 -3.6,-1.27 l -0.93,0.04 a 0.68,0.68 0 0 0 -0.65,0.7 z"
     id="path104"
     inkscape:label="nail" />
  <path
     fill="#c6b9ce"
     d="m 155.91726,247.5487 a 0.68,0.68 0 0 1 0.65,-0.7 l 0.93,-0.04 a 1.41,3.55 87.7 0 1 3.6,1.27 l 0.01,0.34 a 1.41,3.55 87.7 0 1 -3.49,1.55 l -0.93,0.03 a 0.68,0.68 0 0 1 -0.7,-0.65 z"
     id="path108"
     inkscape:label="r-4-fill" />
  <path
     fill="#040116"
     d="m 196.44409,259.8026 -0.30421,6.43707 -17.06262,0.49903 c 0,0 -1.20667,-0.32333 -1.2,-1.13 l 0.1,-22.72 c -4.7e-4,-0.48736 0.38311,-0.88858 0.87,-0.91 l 17.32797,0.23292 -0.3639,5.74763 c 0,0 -10.50346,0.1181 -10.61106,0.17757 l -0.0419,2.93487 10.64772,-0.17398 -0.002,5.30504 -10.23276,0.052 c 0.0289,0.007 -0.0491,3.68877 -0.0491,3.68877 z"
     id="path105"
     inkscape:label="e-4"
     sodipodi:nodetypes="ccccccccccccccc" />
  <path
     fill="#040116"
     d="m 215.74726,252.5487 2.73,-10.24 q 0.13,-0.5 0.63,-0.65 3.04,-0.86 6.14,-0.47 a 1.79,1.79 0 0 1 1.44,2.42 q -3.23,8.3 -6.28,16.94 c -0.46,1.31 -0.51,2.52 -0.55,3.9 q -0.02,0.53 -0.52,0.69 c -2.59,0.83 -7.61,3.28 -8.59,-1.1 q -2.09,-9.37 -4.28,-18.73 c -0.26,-1.09 -0.96,-1.99 -1.48,-3.04 a 0.46,0.47 79.2 0 1 0.46,-0.67 l 7.06,0.54 a 0.74,0.75 87.5 0 1 0.67,0.61 l 1.79,9.77 a 0.4,0.4 0 0 0 0.78,0.03 z"
     id="path103"
     inkscape:label="v" />
  <path
     fill="#040116"
     d="m 240.75425,250.6387 q 0.12,0.1 1.09,-0.01 3.58,-0.4 7.2,0.02 a 0.61,0.61 0 0 1 0.53,0.59 l 0.07,3.79 a 0.57,0.57 0 0 1 -0.56,0.58 l -7,0.16 a 1.52,1.52 0 0 0 -1.47,1.7 q 0.17,1.37 1.96,1.26 4.59,-0.27 9.04,0.85 a 0.79,0.78 6.9 0 1 0.59,0.74 l 0.06,5.56 a 0.51,0.51 0 0 1 -0.54,0.52 l -17.27,-0.75 q -0.72,-0.03 -0.72,-0.76 l 0.03,-21.47 a 1.5,1.51 87.7 0 1 1.39,-1.5 c 3.61,-0.3 14.04,-1.31 16.54,1.12 q 0.38,0.36 0.33,0.88 l -0.23,2.66 q -0.05,0.49 -0.53,0.59 l -10.17,2.08 q -1.55,0.32 -0.34,1.39 z"
     id="path106"
     inkscape:label="e5" />
  <path
     fill="#040116"
     d="m 269.76726,257.8287 a 0.97,0.97 0 0 0 -0.9,1.01 l 0.28,6.07 a 0.56,0.56 0 0 1 -0.55,0.59 l -6.19,0.15 a 0.61,0.6 87.6 0 1 -0.62,-0.58 q -0.55,-10.63 0.51,-21.22 a 0.93,0.91 85.9 0 1 0.67,-0.79 c 3.77,-1.04 16.7,-2.12 18.98,2.22 1.31,2.5 -0.62,6.56 -2.32,8.46 a 0.84,0.82 53.9 0 0 -0.13,0.9 c 0.62,1.31 1.37,2.04 1.53,3.52 q 0.48,4.4 0.93,8.77 0.07,0.67 -0.59,0.53 l -6.8,-1.41 a 0.76,0.75 8.9 0 1 -0.6,-0.81 c 0.3,-3.32 0.82,-7.76 -4.2,-7.41 z m -0.09,-9.98 v 1.92 a 0.43,0.43 0 0 0 0.43,0.43 h 0.12 a 1.3,4.81 89.9 0 0 4.81,-1.3 v -0.18 a 1.3,4.81 89.9 0 0 -4.81,-1.3 h -0.12 a 0.43,0.43 0 0 0 -0.43,0.43 z"
     id="path107"
     inkscape:label="r-5" />
  <path
     fill="#c6b9ce"
     d="m 269.67726,247.8487 a 0.43,0.43 0 0 1 0.43,-0.43 h 0.12 a 1.3,4.81 89.9 0 1 4.81,1.3 v 0.18 a 1.3,4.81 89.9 0 1 -4.81,1.3 h -0.12 a 0.43,0.43 0 0 1 -0.43,-0.43 z"
     id="path109"
     inkscape:label="r-5-fill" />
  <path
     fill="#08030f"
     d="m 296.45726,266.5587 -4.38,-0.15 a 0.81,0.81 0 0 1 -0.78,-0.79 l -0.1,-3.2 a 0.81,0.81 0 0 1 0.77,-0.84 l 3.84,-0.18 a 0.81,0.81 0 0 1 0.84,0.67 l 0.63,3.53 a 0.81,0.81 0 0 1 -0.82,0.96 z"
     id="path110"
     inkscape:label="period" />
  <rect
     fill="#08030f"
     x="34.246269"
     y="267.66632"
     transform="rotate(2.3)"
     width="3.6199999"
     height="4.7800002"
     rx="1.35"
     id="rect110"
     inkscape:label="nail-bottom-left" />
  <circle
     fill="#1e0c0b"
     cx="354.20154"
     cy="121.92513"
     r="1.62"
     id="circle73"
     inkscape:label="nail-top-right" />
  <ellipse
     fill="#1e0c0b"
     cx="309.40854"
     cy="329.1369"
     transform="rotate(-8.6)"
     rx="2.1300001"
     ry="1.49"
     id="ellipse110"
     inkscape:label="nail-bottom-right" />
  <rect
     style="opacity:0;fill:#6570ab;fill-opacity:1"
     id="rect6"
     width="197.47458"
     height="126.25423"
     x="63.604378"
     y="233.17818" />
  <rect
     style="opacity:0;fill:#6570ab;fill-opacity:0.258964;fill-rule:evenodd"
     id="rect7"
     width="35.610168"
     height="4.8559322"
     x="262.69763"
     y="30.847672" />
</svg>
